<svg width="91" height="88" viewBox="0 0 91 88" fill="none" xmlns="http://www.w3.org/2000/svg">
<g clip-path="url(#clip0_67_144)">
<mask id="mask0_67_144" style="mask-type:luminance" maskUnits="userSpaceOnUse" x="78" y="55" width="8" height="16">
<path d="M78.229 69.5602C80.5012 64.9152 82.8559 60.2476 85.1281 55.6026L85.0684 55.7083L85.0088 55.8141L84.9491 55.9198L84.8895 56.0256L78.0132 70.0663L78.0728 69.9605C78.05 69.8775 78.1325 69.8548 78.1325 69.8548L78.1922 69.749C78.1693 69.666 78.2518 69.6433 78.229 69.5602Z" fill="white"/>
</mask>
<g mask="url(#mask0_67_144)">
<path d="M84.9123 56.1086L78.0132 70.0663L78.0728 69.9605C78.05 69.8775 78.1325 69.8548 78.1325 69.8548L78.1922 69.749L78.2518 69.6433L85.1509 55.6856L85.0913 55.7914L85.0316 55.8971L84.972 56.0029L84.9123 56.1086Z" fill="#82791D"/>
</g>
<path d="M11.8 19.0417C11.7632 19.2305 11.7035 19.3363 11.6667 19.525C11.6895 19.6081 11.6299 19.7138 11.6527 19.7969C11.6159 19.9857 11.6387 20.0687 11.6019 20.2575C11.6248 20.3406 11.5651 20.4463 11.6108 20.6124C11.6565 20.7786 11.5968 20.8843 11.6425 21.0504C11.6653 21.1335 11.711 21.2996 11.6513 21.4053C11.697 21.5714 11.6374 21.6772 11.683 21.8433C11.7059 21.9263 11.7516 22.0924 11.7744 22.1755C11.8201 22.3416 11.8429 22.4246 11.8886 22.5907C11.9343 22.7568 11.9571 22.8399 12.0028 23.006C12.0485 23.1721 12.0942 23.3382 12.117 23.4213C12.1627 23.5874 12.1856 23.6704 12.2312 23.8365C12.2769 24.0026 12.3226 24.1688 12.4508 24.3122C12.4965 24.4783 12.6018 24.5386 12.6475 24.7047C12.6932 24.8709 12.8214 25.0143 12.8671 25.1804C12.9127 25.3465 13.0409 25.4899 13.0638 25.5729C13.1094 25.7391 13.2376 25.8825 13.3658 26.0259C13.4115 26.192 13.5397 26.3354 13.6679 26.4788C13.7961 26.6222 13.8417 26.7883 13.9699 26.9318C14.0981 27.0752 14.1438 27.2413 14.272 27.3847C14.4002 27.5281 14.5283 27.6715 14.5969 27.9207C14.7251 28.0641 14.8532 28.2075 14.8989 28.3736C15.0271 28.517 15.1781 28.7435 15.3063 28.8869C15.4345 29.0304 15.5627 29.1738 15.6909 29.3172C15.8191 29.4606 15.9701 29.6871 16.0983 29.8305C16.2264 29.9739 16.3546 30.1173 16.4828 30.2607C16.611 30.4041 16.762 30.6306 16.9727 30.7513C17.1009 30.8948 17.2291 31.0382 17.3801 31.2647C17.6136 31.4684 17.87 31.7553 18.021 31.9817C18.021 31.9817 18.0439 32.0648 18.1264 32.0421C18.3827 32.3289 18.7445 32.6761 19.0008 32.963C19.1062 33.0233 19.129 33.1064 19.2344 33.1667C19.5732 33.4309 19.8524 33.8008 20.1913 34.0649L20.2967 34.1253C20.6584 34.4725 20.9972 34.7366 21.359 35.0838C21.3818 35.1669 21.4643 35.1442 21.4871 35.2272C21.8488 35.5744 22.1877 35.8386 22.5494 36.1858L22.6548 36.2461C23.0165 36.5933 23.4607 36.9178 23.7996 37.182L23.9049 37.2423C24.3491 37.5668 24.7108 37.914 25.1551 38.2385C25.5993 38.563 26.0435 38.8875 26.4877 39.2121L26.593 39.2724C27.0373 39.5969 27.4815 39.9214 27.9257 40.2459C27.9257 40.2459 27.9485 40.329 28.031 40.3063C28.4752 40.6308 29.0248 41.0157 29.469 41.3402C29.9132 41.6647 30.4628 42.0496 30.9895 42.3514L31.0949 42.4117C31.6216 42.7136 32.0658 43.0381 32.6153 43.4229L32.7207 43.4833C33.2474 43.7851 33.7741 44.0869 34.3237 44.4718L34.429 44.5322C34.9557 44.834 35.5053 45.2188 36.032 45.5207C36.032 45.5207 36.032 45.5207 36.1374 45.581C36.6641 45.8828 37.2961 46.245 37.8229 46.5468C38.3496 46.8487 38.9816 47.2108 39.5083 47.5126L39.6137 47.573C40.2229 47.8521 40.7725 48.237 41.3817 48.5161C41.9909 48.7953 42.623 49.1574 43.2322 49.4366L43.3375 49.4969C43.9467 49.7761 44.556 50.0552 45.1652 50.3343L45.2705 50.3947C45.8797 50.6738 46.4064 50.9756 46.9928 51.1717C47.0982 51.2321 47.0982 51.2321 47.2035 51.2924C47.8127 51.5715 48.3166 51.7903 48.9258 52.0694C49.0312 52.1298 49.1137 52.1071 49.219 52.1675C49.7229 52.3862 50.2268 52.605 50.7306 52.8238C50.836 52.8841 50.9185 52.8614 50.9413 52.9445C51.4452 53.1632 51.9491 53.382 52.4301 53.5177C52.8286 53.6761 53.1218 53.7742 53.5204 53.9326C53.8135 54.0306 54.0242 54.1513 54.3174 54.2494C54.716 54.4078 55.0916 54.4831 55.4902 54.6415C55.7834 54.7395 55.9941 54.8603 56.2644 54.8752C56.6629 55.0337 57.144 55.1694 57.5425 55.3278C57.7303 55.3654 57.941 55.4862 58.1289 55.5238C58.7152 55.7199 59.3841 55.8933 59.9705 56.0894C59.9705 56.0894 60.053 56.0667 60.0758 56.1497C60.6622 56.3458 61.2258 56.4588 61.7296 56.6776C61.9175 56.7153 62.1053 56.7529 62.316 56.8737C62.6917 56.949 63.0902 57.1074 63.4659 57.1828C63.6538 57.2204 63.947 57.3185 64.1348 57.3561C64.5105 57.4315 64.8037 57.5295 65.1794 57.6049C65.4497 57.6198 65.6604 57.7406 65.9308 57.7556C66.2239 57.8536 66.5996 57.9289 66.87 57.9439C67.3282 57.9966 67.8092 58.1323 68.1849 58.2076C68.6431 58.2603 69.1241 58.396 69.5823 58.4487C69.6877 58.509 69.8527 58.4636 69.958 58.524C70.3337 58.5994 70.6865 58.5917 70.9797 58.6897C71.0622 58.667 71.1676 58.7274 71.2501 58.7047C71.7083 58.7573 72.084 58.8327 72.5193 58.8023C72.6018 58.7796 72.6247 58.8626 72.7072 58.84C73.0828 58.9153 73.5182 58.8849 73.8939 58.9603C73.9764 58.9376 73.9764 58.9376 74.0817 58.9979C74.4346 58.9902 74.8928 59.0429 75.2456 59.0352L75.3281 59.0125C75.681 59.0048 76.1392 59.0574 76.492 59.0497C76.492 59.0497 76.492 59.0497 76.5745 59.027C76.9274 59.0193 77.3627 58.9889 77.7156 58.9812L77.7981 58.9585C78.1509 58.9508 78.5038 58.9431 78.8338 58.8524C79.1866 58.8447 79.5166 58.7539 79.8695 58.7462L79.952 58.7235C80.117 58.6781 80.282 58.6327 80.3645 58.6101C80.5295 58.5647 80.612 58.542 80.777 58.4966L80.8595 58.4739C80.942 58.4512 81.107 58.4058 81.1895 58.3832L81.272 58.3605C81.437 58.3151 81.5195 58.2924 81.6845 58.247L81.767 58.2243C81.8495 58.2016 82.0145 58.1563 82.097 58.1336L82.1795 58.1109C82.3445 58.0655 82.427 58.0428 82.592 57.9974L82.6745 57.9747C82.757 57.952 82.922 57.9067 82.9817 57.8009L83.0642 57.7782C83.1467 57.7555 83.2889 57.6271 83.3714 57.6044C83.4539 57.5817 83.596 57.4533 83.6785 57.4306L83.761 57.4079C83.8435 57.3852 83.9032 57.2795 83.9857 57.2568C83.9857 57.2568 83.9857 57.2568 84.0682 57.2341C84.1507 57.2114 84.2929 57.083 84.3754 57.0603L84.4579 57.0376C84.5404 57.0149 84.6 56.9092 84.6825 56.8865C84.6825 56.8865 84.765 56.8638 84.7422 56.7807C84.8019 56.675 84.8844 56.6523 84.944 56.5466C85.0037 56.4408 85.0862 56.4181 85.1458 56.3124C85.1458 56.3124 85.2283 56.2897 85.2055 56.2066C85.2652 56.1009 85.3477 56.0782 85.4073 55.9725C85.467 55.8667 85.5266 55.761 85.5863 55.6552L78.9207 69.8167L78.861 69.9224L78.8014 70.0281C78.8014 70.0281 78.8014 70.0281 78.7417 70.1339L78.6821 70.2396L78.6224 70.3454C78.6224 70.3454 78.5399 70.3681 78.5627 70.4511C78.5627 70.4511 78.5627 70.4511 78.4802 70.4738C78.4206 70.5795 78.3381 70.6022 78.2784 70.708C78.1134 70.7534 78.1134 70.7534 78.0538 70.8591C78.0538 70.8591 78.0538 70.8591 77.9713 70.8818C77.9713 70.8818 77.8888 70.9045 77.9116 70.9875C77.9116 70.9875 77.8291 71.0102 77.8519 71.0933C77.7694 71.116 77.7694 71.116 77.7098 71.2217L77.6273 71.2444C77.5448 71.2671 77.4851 71.3728 77.4026 71.3955C77.4026 71.3955 77.4026 71.3955 77.3201 71.4182C77.2376 71.4409 77.2376 71.4409 77.1779 71.5466L77.0954 71.5693L77.0129 71.592L76.9304 71.6147C76.8479 71.6374 76.7883 71.7431 76.7058 71.7658C76.6233 71.7885 76.5408 71.8112 76.4811 71.917L76.3986 71.9397L76.3161 71.9623L76.2336 71.985C76.1511 72.0077 76.0686 72.0304 76.0686 72.0304L75.9861 72.0531C75.9036 72.0758 75.8211 72.0985 75.6561 72.1439C75.6561 72.1439 75.6561 72.1439 75.5736 72.1665L75.4911 72.1892C75.4086 72.2119 75.4086 72.2119 75.3261 72.2346C75.2436 72.2573 75.2436 72.2573 75.1611 72.28L75.0786 72.3027C75.0786 72.3027 75.0786 72.3027 74.9961 72.3254C74.9136 72.3481 74.7486 72.3934 74.6661 72.4161L74.5836 72.4388C74.5011 72.4615 74.4186 72.4842 74.3361 72.5069C74.2536 72.5296 74.2536 72.5296 74.1711 72.5523L74.0885 72.575L74.006 72.5977C73.9235 72.6203 73.7585 72.6657 73.676 72.6884C73.5935 72.7111 73.4285 72.7565 73.346 72.7792L73.2635 72.8019C73.2635 72.8019 73.2635 72.8019 73.181 72.8246C73.0985 72.8472 73.016 72.8699 73.016 72.8699C72.851 72.9153 72.7685 72.938 72.5807 72.9003C72.3928 72.8627 72.3332 72.9684 72.1453 72.9307C72.0628 72.9534 71.8978 72.9988 71.7925 72.9384C71.6275 72.9838 71.5221 72.9235 71.3571 72.9688C71.2746 72.9915 71.1921 73.0142 71.0868 72.9538L71.0043 72.9765C70.9218 72.9992 70.9218 72.9992 70.8393 73.0219C70.6743 73.0673 70.4864 73.0296 70.4039 73.0523C70.2389 73.0977 70.0511 73.06 69.8861 73.1054C69.8861 73.1054 69.8861 73.1054 69.8036 73.1281C69.6386 73.1735 69.5332 73.1131 69.3682 73.1585C69.1804 73.1208 69.0154 73.1662 68.8275 73.1285C68.745 73.1512 68.745 73.1512 68.6397 73.0908L68.5572 73.1135C68.4747 73.1362 68.3693 73.0759 68.2868 73.0985C68.099 73.0609 67.934 73.1063 67.6636 73.0913C67.5811 73.114 67.4758 73.0536 67.3933 73.0763C67.3108 73.099 67.3108 73.099 67.2054 73.0386C67.1229 73.0613 67.0176 73.0009 66.9351 73.0236C66.6648 73.0086 66.4769 72.971 66.2066 72.956C66.1241 72.9787 66.0187 72.9183 66.0187 72.9183C65.9362 72.941 65.9134 72.858 65.8309 72.8806C65.7484 72.9033 65.5605 72.8657 65.478 72.8884C65.2077 72.8734 64.9373 72.8584 64.7495 72.8207C64.7495 72.8207 64.667 72.8434 64.6441 72.7603C64.5616 72.783 64.4563 72.7227 64.3738 72.7454C64.1859 72.7077 63.9981 72.67 63.7278 72.655C63.5399 72.6174 63.4574 72.64 63.2696 72.6024C63.1871 72.6251 63.0817 72.5647 63.0817 72.5647C62.9992 72.5874 62.9764 72.5043 62.8939 72.527C62.8114 72.5497 62.706 72.4894 62.6235 72.512C61.9178 72.5275 61.5421 72.4521 61.2718 72.4371C60.8961 72.3618 60.5204 72.2864 60.1447 72.2111C60.0394 72.1507 59.9569 72.1734 59.8515 72.1131C59.5583 72.015 59.1827 71.9397 58.9123 71.9247C58.642 71.9097 58.4313 71.789 58.1609 71.774C57.7852 71.6986 57.492 71.6006 57.1164 71.5253C56.9285 71.4876 56.7407 71.4499 56.5528 71.4122C56.5528 71.4122 56.4703 71.4349 56.4475 71.3519C56.0718 71.2765 55.6733 71.1181 55.2976 71.0428C55.1097 71.0051 54.9219 70.9674 54.7112 70.8467C54.1477 70.7337 53.5613 70.5376 53.0574 70.3189C53.0574 70.3189 52.9749 70.3415 52.9521 70.2585C52.3657 70.0624 51.7793 69.8663 51.1104 69.693C50.9226 69.6553 50.7119 69.5346 50.524 69.4969C50.1255 69.3385 49.7498 69.2631 49.3513 69.1047L49.246 69.0444L49.1406 68.984C48.9528 68.9463 48.7421 68.8256 48.5542 68.7879C48.1557 68.6295 47.78 68.5542 47.3815 68.3958C47.0883 68.2978 46.8776 68.177 46.5844 68.079C46.1859 67.9206 45.8927 67.8226 45.4942 67.6642C45.3888 67.6038 45.3063 67.6265 45.2835 67.5434C44.8849 67.385 44.4864 67.2266 44.1704 67.0455L44.065 66.9852C43.9597 66.9248 43.8772 66.9475 43.8544 66.8644C43.5612 66.7664 43.3505 66.6457 43.0573 66.5477C42.8466 66.4269 42.5534 66.3289 42.3427 66.2082C42.2374 66.1478 42.1549 66.1705 42.0495 66.1101L41.9442 66.0498C41.5457 65.8914 41.1471 65.733 40.8311 65.5519C40.7258 65.4915 40.5379 65.4538 40.4326 65.3935C40.3501 65.4162 40.3272 65.3331 40.2447 65.3558C40.1394 65.2954 40.0569 65.3181 39.9515 65.2578C39.6584 65.1597 39.3423 64.9786 39.1316 64.8579C38.9209 64.7372 38.7331 64.6995 38.5224 64.5788L38.4171 64.5184L38.3117 64.4581C38.0185 64.36 37.7025 64.1789 37.4918 64.0582C37.2811 63.9375 36.9879 63.8394 36.7773 63.7187L36.6719 63.6583L36.5666 63.598C36.4612 63.5376 36.2505 63.4169 36.1452 63.3565C35.9345 63.2358 35.6413 63.1378 35.4306 63.017C35.22 62.8963 34.9268 62.7983 34.7161 62.6776C34.5054 62.5568 34.2947 62.4361 34.0015 62.3381C33.7908 62.2173 33.5801 62.0966 33.287 61.9986C33.1816 61.9382 33.1816 61.9382 33.0763 61.8778L32.9709 61.8175C32.8656 61.7571 32.7602 61.6968 32.6549 61.6364C32.4442 61.5157 32.2335 61.3949 32.0228 61.2742C31.8121 61.1535 31.6015 61.0328 31.3908 60.912C31.1801 60.7913 30.9694 60.6706 30.8641 60.6102C30.6534 60.4895 30.4427 60.3688 30.232 60.248C30.0213 60.1273 29.916 60.0669 29.7053 59.9462C29.7053 59.9462 29.7053 59.9462 29.5999 59.8859C29.5999 59.8859 29.5999 59.8859 29.4946 59.8255C29.2839 59.7048 29.0732 59.584 28.8625 59.4633C28.6519 59.3426 28.4412 59.2219 28.2305 59.1011C28.1251 59.0408 28.0198 58.9804 27.9144 58.92L27.8091 58.8597C27.7038 58.7993 27.7038 58.7993 27.5984 58.739C27.3877 58.6182 27.177 58.4975 26.9664 58.3768C26.7557 58.2561 26.545 58.1353 26.4168 57.9919C26.3115 57.9315 26.2886 57.8485 26.2061 57.8712L26.1008 57.8108C25.9954 57.7505 25.8901 57.6901 25.8672 57.607C25.6566 57.4863 25.4459 57.3656 25.3177 57.2222C25.107 57.1014 24.8963 56.9807 24.7681 56.8373L24.6628 56.7769L24.5574 56.7166C24.4521 56.6562 24.3239 56.5128 24.2186 56.4524C24.0079 56.3317 23.8797 56.1883 23.669 56.0676C23.4583 55.9468 23.3301 55.8034 23.1195 55.6827C22.9088 55.562 22.7806 55.4186 22.5927 55.3809C22.3821 55.2601 22.2539 55.1167 22.0432 54.996C21.9378 54.9356 21.8097 54.7922 21.7043 54.7319L21.599 54.6715C21.3883 54.5508 21.2601 54.4074 21.0494 54.2866C20.8387 54.1659 20.7105 54.0225 20.4999 53.9018C20.3945 53.8414 20.3945 53.8414 20.2892 53.781L20.1838 53.7207C20.0785 53.6603 19.9731 53.5999 19.9503 53.5169C19.7396 53.3962 19.6114 53.2528 19.4007 53.132C19.19 53.0113 19.0619 52.8679 18.9337 52.7245C18.723 52.6037 18.5948 52.4603 18.3841 52.3396C18.1734 52.2189 18.0224 51.9924 17.8117 51.8717C17.7889 51.7886 17.7064 51.8113 17.6835 51.7283L17.5782 51.6679C17.4728 51.6075 17.3675 51.5472 17.2393 51.4037C17.0286 51.283 16.8776 51.0566 16.6669 50.9358C15.9067 50.4302 15.8013 50.3699 15.696 50.3095L15.5906 50.2491C15.5678 50.1661 15.4853 50.1888 15.4625 50.1057C15.2289 49.9019 15.1008 49.7585 14.8672 49.5547C14.739 49.4113 14.6337 49.351 14.5055 49.2076L14.4002 49.1472L14.2948 49.0868C14.0613 48.883 13.9331 48.7396 13.6996 48.5359C13.5714 48.3924 13.4661 48.3321 13.3379 48.1887L13.2325 48.1283C13.2325 48.1283 13.2097 48.0452 13.1272 48.0679C12.8937 47.8641 12.6601 47.6604 12.4266 47.4566C12.3809 47.2905 12.3581 47.2074 12.2527 47.1471C12.1474 47.0867 12.1245 47.0036 12.0192 46.9433C11.9139 46.8829 11.891 46.7999 11.7857 46.7395C11.5521 46.5357 11.4011 46.3093 11.1676 46.1055C11.1676 46.1055 11.1676 46.1055 11.1448 46.0224L11.1219 45.9394C10.9937 45.796 10.7602 45.5922 10.632 45.4488C10.5267 45.3884 10.5038 45.3053 10.3985 45.245C10.2703 45.1016 10.1421 44.9582 9.99109 44.7317C9.86291 44.5883 9.71188 44.3618 9.50119 44.2411C9.37301 44.0976 9.24482 43.9542 9.11664 43.8108C8.98845 43.6674 8.83743 43.4409 8.70924 43.2975C8.55822 43.071 8.51253 42.9049 8.38435 42.7615C8.25616 42.6181 8.10514 42.3916 7.97695 42.2482C7.84877 42.1048 7.72058 41.9614 7.6749 41.7953C7.65206 41.7122 7.54672 41.6519 7.52387 41.5688C7.50103 41.4858 7.37285 41.3423 7.35001 41.2593C7.22182 41.1159 7.09364 40.9725 6.96545 40.829C6.83727 40.6856 6.79158 40.5195 6.6634 40.3761C6.53522 40.2327 6.48953 40.0666 6.36135 39.9232C6.23316 39.7797 6.18748 39.6136 6.1418 39.4475C6.09611 39.2814 5.96793 39.138 5.94509 39.055C5.89941 38.8889 5.77122 38.7454 5.72554 38.5793C5.7027 38.4963 5.67986 38.4132 5.55167 38.2698C5.52883 38.1868 5.52883 38.1868 5.52883 38.1868C5.50599 38.1037 5.50599 38.1037 5.48315 38.0207C5.4603 37.9376 5.41462 37.7715 5.39178 37.6884C5.3461 37.5223 5.32325 37.4393 5.27757 37.2732C5.23189 37.1071 5.18621 36.941 5.16337 36.8579C5.11768 36.6918 5.09484 36.6087 5.04916 36.4426C5.00347 36.2765 4.95779 36.1104 4.93495 36.0274C4.91211 35.9443 4.86643 35.7782 4.84359 35.6952C4.7979 35.5291 4.77506 35.446 4.81188 35.2572C4.78904 35.1742 4.74335 35.008 4.80302 34.9023C4.80302 34.9023 4.80302 34.9023 4.78017 34.8193C4.75733 34.7362 4.79415 34.5474 4.77131 34.4644C4.74847 34.3813 4.80813 34.2756 4.76245 34.1094C4.79926 33.9206 4.77642 33.8376 4.81324 33.6488C4.7904 33.5657 4.85006 33.46 4.82722 33.3769C4.86404 33.1882 4.9237 33.0824 4.96052 32.8936C4.93768 32.8106 4.99734 32.7048 4.99734 32.7048C5.11666 32.4933 5.15348 32.3045 5.2728 32.0931L12.1719 18.1354C12.0526 18.3469 12.0158 18.5357 11.8965 18.7472C11.8368 18.8529 11.8596 18.936 11.8 19.0417Z" fill="url(#paint0_linear_67_144)"/>
<path d="M8.44397 42.6558C9.17387 41.115 9.92662 39.6573 10.739 38.0939C11.4918 36.6362 12.3042 35.0727 13.1394 33.5923C13.9747 32.1119 14.8099 30.6315 15.6451 29.1511L16.898 26.9305C17.3156 26.1903 17.7333 25.4501 18.2562 24.7703C17.9211 25.4878 17.5263 26.311 17.1087 27.0512L15.9612 29.3322C15.2084 30.7899 14.396 32.3533 13.5608 33.8337C12.7255 35.3141 11.8903 36.7946 11.055 38.275C10.1373 39.778 9.27922 41.1754 8.44397 42.6558Z" fill="url(#paint1_linear_67_144)"/>
<path d="M15.2657 49.7131C15.9956 48.1724 16.7484 46.7147 17.5608 45.1512C18.3135 43.6935 19.1259 42.13 19.9612 40.6496C20.7964 39.1692 21.6317 37.6888 22.4669 36.2084L23.7198 33.9878C24.1374 33.2476 24.555 32.5074 25.078 31.8276C24.7429 32.5451 24.3481 33.3684 23.9305 34.1086L22.783 36.3895C22.0302 37.8472 21.2178 39.4107 20.3826 40.8911C19.5473 42.3715 18.7121 43.8519 17.8768 45.3323C17.0416 46.8127 16.2063 48.2931 15.2657 49.7131Z" fill="url(#paint2_linear_67_144)"/>
<path d="M22.4874 55.3205C23.2173 53.7797 23.9701 52.322 24.7825 50.7586C25.5352 49.3009 26.3476 47.7374 27.1829 46.257C28.0181 44.7766 28.8534 43.2962 29.6886 41.8158L30.9415 39.5952C31.3591 38.855 31.7767 38.1148 32.2997 37.435C31.9646 38.1525 31.5698 38.9757 31.1522 39.7159L30.0046 41.9969C29.2519 43.4546 28.4395 45.0181 27.6042 46.4985C26.769 47.9789 25.9338 49.4593 25.0985 50.9397C24.1808 52.4427 23.3455 53.9231 22.4874 55.3205Z" fill="url(#paint3_linear_67_144)"/>
<path d="M30.0214 60.1273C30.7513 58.5866 31.504 57.1288 32.3164 55.5654C33.0692 54.1077 33.8816 52.5442 34.7168 51.0638C35.5521 49.5834 36.3873 48.103 37.2225 46.6226L38.4754 44.402C38.893 43.6618 39.3107 42.9216 39.8336 42.2418C39.4985 42.9593 39.1037 43.7825 38.6861 44.5227L37.5386 46.8037C36.7858 48.2614 35.9734 49.8249 35.1382 51.3053C34.3029 52.7857 33.4677 54.2661 32.6324 55.7465C31.7972 57.2269 30.962 58.7073 30.0214 60.1273Z" fill="url(#paint4_linear_67_144)"/>
<path d="M38.2977 64.7299C39.0276 63.1892 39.7804 61.7314 40.5928 60.168C41.3455 58.7103 42.1579 57.1468 42.9932 55.6664C43.8284 54.186 44.6637 52.7056 45.4989 51.2252L46.7518 49.0046C47.1694 48.2644 47.587 47.5242 48.11 46.8444C47.7749 47.5619 47.3801 48.3851 46.9625 49.1253L45.8149 51.4063C45.0622 52.864 44.2498 54.4275 43.4145 55.9079C42.5793 57.3883 41.7441 58.8687 40.9088 60.3491C40.0736 61.8295 39.2383 63.3099 38.2977 64.7299Z" fill="url(#paint5_linear_67_144)"/>
<path d="M46.6301 68.2451C47.36 66.7043 48.1128 65.2466 48.9252 63.6832C49.6779 62.2254 50.4903 60.662 51.3256 59.1816C52.1608 57.7012 52.9961 56.2208 53.8313 54.7404L55.0842 52.5198C55.5018 51.7796 55.9194 51.0394 56.4424 50.3595C56.1073 51.0771 55.7125 51.9003 55.2949 52.6405L54.1473 54.9215C53.3946 56.3792 52.5822 57.9426 51.7469 59.423C50.9117 60.9034 50.0765 62.3838 49.2412 63.8642C48.3235 65.3673 47.4882 66.8477 46.6301 68.2451Z" fill="url(#paint6_linear_67_144)"/>
<path d="M55.3572 70.937C56.0871 69.3963 56.8398 67.9386 57.6522 66.3751C58.405 64.9174 59.2174 63.3539 60.0526 61.8735C60.8879 60.3931 61.7231 58.9127 62.5584 57.4323L63.8112 55.2117C64.2288 54.4715 64.6465 53.7313 65.1694 53.0515C64.8343 53.769 64.4395 54.5923 64.0219 55.3325L62.8744 57.6134C62.1216 59.0711 61.3092 60.6346 60.474 62.115C59.6387 63.5954 58.8035 65.0758 57.9683 66.5562C57.133 68.0366 56.2153 69.5397 55.3572 70.937Z" fill="url(#paint7_linear_67_144)"/>
<path d="M65.5834 72.9487C66.3133 71.4079 67.066 69.9502 67.8784 68.3868C68.6312 66.9291 69.4436 65.3656 70.2788 63.8852C71.1141 62.4048 71.9493 60.9244 72.7846 59.444L74.0374 57.2234C74.455 56.4832 74.8727 55.743 75.3956 55.0632C75.0605 55.7807 74.6657 56.6039 74.2481 57.3441L73.1006 59.6251C72.3478 61.0828 71.5354 62.6463 70.7002 64.1267C69.8649 65.6071 69.0297 67.0875 68.1945 68.5679C67.3592 70.0483 66.5011 71.4456 65.5834 72.9487Z" fill="url(#paint8_linear_67_144)"/>
<path d="M74.5011 72.4615C75.231 70.9208 75.9837 69.463 76.7961 67.8996C77.5489 66.4419 78.3613 64.8784 79.1965 63.398C80.0318 61.9176 80.867 60.4372 81.7023 58.9568L82.9551 56.7362C83.3728 55.996 83.7904 55.2558 84.3134 54.576C83.9782 55.2935 83.5835 56.1167 83.1658 56.8569L82.0183 59.1379C81.2656 60.5956 80.4532 62.1591 79.6179 63.6395C78.7827 65.1199 77.9474 66.6003 77.1122 68.0807C76.2769 69.5611 75.3592 71.0642 74.5011 72.4615Z" fill="url(#paint9_linear_67_144)"/>
<path d="M85.3882 56.8711C86.4481 55.2395 86.3949 53.1101 85.4622 50.6866C84.5294 48.2631 82.6346 45.5681 80.0113 42.8055C77.3651 39.9599 73.9903 37.0466 69.9099 34.1488C65.912 31.2282 61.3137 28.3834 56.2432 25.7578C51.1728 23.1323 46.134 20.9446 41.3148 19.2326C36.4956 17.5206 32.0013 16.3446 27.9969 15.6592C23.9925 14.9738 20.4183 14.8848 17.6869 15.2786C14.873 15.6952 12.865 16.7834 11.8051 18.4149C10.7452 20.0465 10.7158 22.1986 11.7083 24.5164C12.641 26.9399 14.5358 29.6348 17.1592 32.3974C19.8054 35.2431 23.1801 38.1563 27.2605 41.0542C31.2585 43.9748 35.9393 46.7968 41.0326 49.5055C46.103 52.1311 51.2471 54.3791 55.961 56.0307C60.7802 57.7427 65.2745 58.9187 69.3614 59.5814C73.3658 60.2668 76.94 60.3559 79.6485 59.879C82.2975 59.5078 84.3283 58.5026 85.3882 56.8711Z" fill="url(#paint10_linear_67_144)"/>
<path d="M11.7045 23.5347C12.6373 25.9582 14.5321 28.6532 17.1554 31.4158C19.8016 34.2614 23.1764 37.1747 27.2568 40.0726C31.2547 42.9931 35.9355 45.8152 41.0288 48.5238C46.0993 51.1494 51.2434 53.3974 55.9572 55.0491C60.7764 56.7611 65.2707 57.9371 69.3576 58.5998C73.362 59.2852 76.9362 59.3742 79.6448 58.8973C82.4359 58.3977 84.4667 57.3925 85.5266 55.761C85.8846 55.1265 86.1372 54.4317 86.2845 53.6765C86.3339 54.8243 86.0902 55.874 85.5304 56.7426C84.4705 58.3742 82.4625 59.4624 79.6485 59.879C76.8575 60.3786 73.3658 60.2668 69.3614 59.5814C65.357 58.896 60.7802 57.7427 55.961 56.0307C51.1418 54.3187 46.103 52.1311 41.0326 49.5055C35.9621 46.8799 31.2585 43.9748 27.2605 41.0542C23.2626 38.1336 19.8054 35.2431 17.1592 32.3974C14.513 29.5518 12.641 26.9399 11.7083 24.5164C11.1321 23.0668 10.9316 21.6926 11.0472 20.4994C11.051 21.4811 11.2426 22.5004 11.7045 23.5347Z" fill="url(#paint11_linear_67_144)"/>
<path d="M79.0536 53.5211C79.9117 52.1238 79.8903 50.4323 79.0717 48.4241C78.2532 46.4158 76.7657 44.2342 74.5269 41.9018C72.3706 39.5468 69.4858 37.1241 66.1656 34.7319C62.8454 32.3396 59.0074 30.0004 54.8622 27.835C50.717 25.6697 46.4981 23.8819 42.5585 22.464C38.6189 21.0461 34.8988 20.1038 31.5404 19.5088C28.2049 18.9968 25.3364 18.8923 23.0403 19.2558C20.7443 19.6192 19.0206 20.4506 18.1625 21.848C17.2816 23.1623 17.2434 24.9595 18.0391 26.8847C18.8576 28.8929 20.345 31.0746 22.5013 33.4296C24.6576 35.7846 27.5425 38.2073 30.8627 40.5996C34.1829 42.9918 38.0209 45.331 42.2715 47.5567C46.522 49.7825 50.6583 51.5929 54.6805 52.9882C58.6201 54.406 62.4227 55.3256 65.7811 55.9207C69.1166 56.4327 71.9851 56.5372 74.2811 56.1737C76.4719 55.7499 78.1727 54.8354 79.0536 53.5211Z" fill="url(#paint12_linear_67_144)"/>
<path d="M66.2482 34.7092C69.5683 37.1014 72.3707 39.5468 74.6095 41.8791C76.7658 44.2341 78.3357 46.3931 79.1543 48.4014C79.9728 50.4096 79.9943 52.1011 79.1362 53.4984C78.5764 54.3671 77.6181 55.0773 76.4262 55.5837C76.9581 55.2588 77.3617 54.7905 77.6829 54.3448C78.5409 52.9474 78.5195 51.256 77.7009 49.2477C76.8824 47.2395 75.395 45.0578 73.1562 42.7255C70.9999 40.3705 68.115 37.9478 64.7948 35.5555C61.4746 33.1633 57.6366 30.8241 53.4914 28.6587C49.3462 26.4933 45.1273 24.7056 41.1877 23.2877C37.2481 21.8698 33.528 20.9275 30.1696 20.3324C26.8341 19.8204 23.9656 19.716 21.6695 20.0794C20.9042 20.2006 20.1617 20.4048 19.5245 20.6694C20.4232 20.0649 21.6975 19.5357 23.1457 19.3161C25.4418 18.9527 28.3928 19.0344 31.6458 19.5691C34.9813 20.0811 38.7242 21.1065 42.6639 22.5244C46.6035 23.9422 50.8224 25.73 54.9676 27.8954C59.0899 29.9777 62.928 32.3169 66.2482 34.7092Z" fill="url(#paint13_linear_67_144)"/>
<path d="M50.3448 54.0019C50.3448 54.0019 47.5919 52.7043 45.3885 51.7916C45.3885 51.7916 47.6338 51.8888 46.0778 49.458L51.1991 51.6229C51.2219 51.706 45.8024 50.0697 50.3448 54.0019Z" fill="url(#paint14_linear_67_144)"/>
<path opacity="0.53" d="M46.7924 49.7975C46.7924 49.7975 27.2238 41.243 19.6725 29.9195L50.8224 25.73C50.8224 25.73 74.0184 36.5029 79.2 48.5675L46.7924 49.7975Z" fill="url(#paint15_linear_67_144)"/>
<path opacity="0.53" d="M47.4497 52.8328L47.3191 50.0993C47.3191 50.0993 42.3261 48.0778 31.9847 41.4523C31.9847 41.4523 20.2193 33.5212 17.6737 25.5558L12.8289 26.9776C12.8289 26.9776 15.8392 32.7605 24.2196 39.0318C24.2196 39.0318 30.0947 43.9375 39.8599 49.1134C39.837 49.0303 47.0969 52.8405 47.4497 52.8328Z" fill="url(#paint16_linear_67_144)"/>
<path opacity="0.53" d="M86.1563 53.5331L79.7607 51.8973C79.6554 51.8369 79.5501 51.7766 79.5869 51.5878C79.6745 50.9383 79.8231 48.5748 76.8571 44.5664C76.0195 43.4567 75.2047 42.4301 74.2478 41.5319C72.2882 39.5695 65.8179 34.1128 62.7401 32.2792C62.7401 32.2792 54.4828 26.778 47.9641 24.3721L48.1267 21.7366C48.1267 21.7366 62.1439 27.5298 73.734 36.7598C74.0957 37.107 74.5171 37.3485 74.8788 37.6957C77.0491 39.7788 85.4244 46.6769 86.1563 53.5331Z" fill="url(#paint17_linear_67_144)"/>
<path d="M85.3882 56.8711C85.3882 56.8711 87.4433 54.3405 85.1145 50.0676C85.1145 50.0676 82.6926 52.8777 79.2316 49.0054C79.2316 49.0054 80.3522 51.4666 78.65 53.9895C78.7325 53.9668 82.6851 50.9144 85.3882 56.8711Z" fill="url(#paint18_linear_67_144)"/>
<path d="M50.4869 53.8735L50.0693 54.6137L52.3271 56.0474L52.7219 55.2242L50.4869 53.8735Z" fill="url(#paint19_linear_67_144)"/>
<path d="M53.7754 55.8278L53.3577 56.568L55.8771 57.6618L56.2719 56.8385L53.7754 55.8278Z" fill="url(#paint20_linear_67_144)"/>
<path d="M52.7484 56.2889L52.3536 57.1121L53.3576 56.568L53.7753 55.8278L52.7484 56.2889Z" fill="url(#paint21_linear_67_144)"/>
<path d="M52.7218 55.2242L52.327 56.0474L52.3536 57.1121L52.7484 56.2889L52.7218 55.2242Z" fill="url(#paint22_linear_67_144)"/>
<path d="M56.2718 56.8386L54.0139 55.4048L53.9277 54.4459L52.9008 54.9069L50.4868 53.8735L52.7219 55.2242L52.7485 56.2889L53.7753 55.8278L56.2718 56.8386Z" fill="url(#paint23_linear_67_144)"/>
</g>
<defs>
<linearGradient id="paint0_linear_67_144" x1="89.3928" y1="82.8413" x2="15.6113" y2="26.8372" gradientUnits="userSpaceOnUse">
<stop stop-color="#F49B1A"/>
<stop offset="0.4648" stop-color="#FFD201"/>
<stop offset="0.9774" stop-color="#F39519"/>
</linearGradient>
<linearGradient id="paint1_linear_67_144" x1="8.4105" y1="42.6326" x2="18.3045" y2="24.8918" gradientUnits="userSpaceOnUse">
<stop stop-color="#CD8D09"/>
<stop offset="1" stop-color="#9C4F16"/>
</linearGradient>
<linearGradient id="paint2_linear_67_144" x1="15.2964" y1="49.7189" x2="25.1905" y2="31.978" gradientUnits="userSpaceOnUse">
<stop stop-color="#CD8D09"/>
<stop offset="1" stop-color="#9C4F16"/>
</linearGradient>
<linearGradient id="paint3_linear_67_144" x1="22.452" y1="55.3327" x2="32.346" y2="37.5919" gradientUnits="userSpaceOnUse">
<stop stop-color="#CD8D09"/>
<stop offset="1" stop-color="#9C4F16"/>
</linearGradient>
<linearGradient id="paint4_linear_67_144" x1="30.0623" y1="60.1186" x2="39.9563" y2="42.3778" gradientUnits="userSpaceOnUse">
<stop stop-color="#CD8D09"/>
<stop offset="1" stop-color="#9C4F16"/>
</linearGradient>
<linearGradient id="paint5_linear_67_144" x1="38.3126" y1="64.7203" x2="48.2066" y2="46.9796" gradientUnits="userSpaceOnUse">
<stop stop-color="#CD8D09"/>
<stop offset="1" stop-color="#9C4F16"/>
</linearGradient>
<linearGradient id="paint6_linear_67_144" x1="46.605" y1="68.2637" x2="56.499" y2="50.523" gradientUnits="userSpaceOnUse">
<stop stop-color="#CD8D09"/>
<stop offset="1" stop-color="#9C4F16"/>
</linearGradient>
<linearGradient id="paint7_linear_67_144" x1="55.352" y1="70.979" x2="65.246" y2="53.2382" gradientUnits="userSpaceOnUse">
<stop stop-color="#CD8D09"/>
<stop offset="1" stop-color="#9C4F16"/>
</linearGradient>
<linearGradient id="paint8_linear_67_144" x1="65.6064" y1="72.9121" x2="75.5004" y2="55.1712" gradientUnits="userSpaceOnUse">
<stop stop-color="#CD8D09"/>
<stop offset="1" stop-color="#9C4F16"/>
</linearGradient>
<linearGradient id="paint9_linear_67_144" x1="74.4803" y1="72.4525" x2="84.3743" y2="54.7117" gradientUnits="userSpaceOnUse">
<stop stop-color="#CD8D09"/>
<stop offset="1" stop-color="#9C4F16"/>
</linearGradient>
<linearGradient id="paint10_linear_67_144" x1="74.157" y1="82.9424" x2="25.6702" y2="-2.21389" gradientUnits="userSpaceOnUse">
<stop offset="0.0376884" stop-color="#F5E71E"/>
<stop offset="0.9774" stop-color="#FBBF09"/>
</linearGradient>
<linearGradient id="paint11_linear_67_144" x1="73.4747" y1="82.778" x2="26.4003" y2="0.102933" gradientUnits="userSpaceOnUse">
<stop offset="0.0376884" stop-color="#FFF8EA"/>
<stop offset="1" stop-color="#F2E500"/>
</linearGradient>
<linearGradient id="paint12_linear_67_144" x1="65.8834" y1="68.4788" x2="33.0251" y2="10.4388" gradientUnits="userSpaceOnUse">
<stop stop-color="#F49B1A"/>
<stop offset="0.4648" stop-color="#FFD201"/>
<stop offset="0.9774" stop-color="#F39519"/>
</linearGradient>
<linearGradient id="paint13_linear_67_144" x1="64.0886" y1="76.2993" x2="48.3924" y2="32.2735" gradientUnits="userSpaceOnUse">
<stop stop-color="#F8AE19"/>
<stop offset="0.9774" stop-color="#F39519"/>
</linearGradient>
<linearGradient id="paint14_linear_67_144" x1="50.7642" y1="54.6446" x2="41.5108" y2="45.0867" gradientUnits="userSpaceOnUse">
<stop offset="0.0376884" stop-color="#FFF8EA"/>
<stop offset="1" stop-color="#F2E500"/>
</linearGradient>
<linearGradient id="paint15_linear_67_144" x1="37.1379" y1="97.4025" x2="62.4624" y2="-19.1559" gradientUnits="userSpaceOnUse">
<stop offset="0.0376884" stop-color="#FFF8EA"/>
<stop offset="1" stop-color="#F2E500"/>
</linearGradient>
<linearGradient id="paint16_linear_67_144" x1="34.7035" y1="55.3965" x2="24.9233" y2="19.8562" gradientUnits="userSpaceOnUse">
<stop offset="0.0376884" stop-color="#FFF8EA"/>
<stop offset="1" stop-color="#F2E500"/>
</linearGradient>
<linearGradient id="paint17_linear_67_144" x1="87.7116" y1="54.9699" x2="52.6082" y2="23.5843" gradientUnits="userSpaceOnUse">
<stop offset="0.0376884" stop-color="#FFF8EA"/>
<stop offset="1" stop-color="#F2E500"/>
</linearGradient>
<linearGradient id="paint18_linear_67_144" x1="86.6694" y1="57.8111" x2="73.8241" y2="42.0882" gradientUnits="userSpaceOnUse">
<stop offset="0.0376884" stop-color="#FFF8EA"/>
<stop offset="1" stop-color="#F2E500"/>
</linearGradient>
<linearGradient id="paint19_linear_67_144" x1="51.4101" y1="58.2489" x2="51.4087" y2="55.5003" gradientUnits="userSpaceOnUse">
<stop offset="0.0376884" stop-color="#FFF8EA"/>
<stop offset="0.1002" stop-color="#FFF7E2"/>
<stop offset="0.705" stop-color="#FBF19D"/>
<stop offset="0.9874" stop-color="#F9EE82"/>
</linearGradient>
<linearGradient id="paint20_linear_67_144" x1="55.2186" y1="58.6158" x2="54.7142" y2="56.2397" gradientUnits="userSpaceOnUse">
<stop offset="0.0376884" stop-color="#FFF8EA"/>
<stop offset="0.1002" stop-color="#FFF7E2"/>
<stop offset="0.705" stop-color="#FBF19D"/>
<stop offset="0.9874" stop-color="#F9EE82"/>
</linearGradient>
<linearGradient id="paint21_linear_67_144" x1="53.0726" y1="58.2482" x2="53.0713" y2="55.4997" gradientUnits="userSpaceOnUse">
<stop offset="0.0376884" stop-color="#FFF8EA"/>
<stop offset="0.1002" stop-color="#FFF7E2"/>
<stop offset="0.705" stop-color="#FBF19D"/>
<stop offset="0.9874" stop-color="#F9EE82"/>
</linearGradient>
<linearGradient id="paint22_linear_67_144" x1="52.5482" y1="58.2483" x2="52.5468" y2="55.5001" gradientUnits="userSpaceOnUse">
<stop offset="0.0376884" stop-color="#FFF8EA"/>
<stop offset="0.1002" stop-color="#FFF7E2"/>
<stop offset="0.705" stop-color="#FBF19D"/>
<stop offset="0.9874" stop-color="#F9EE82"/>
</linearGradient>
<linearGradient id="paint23_linear_67_144" x1="55.2064" y1="58.0902" x2="48.1291" y2="47.6718" gradientUnits="userSpaceOnUse">
<stop offset="0.0376884" stop-color="#FFF8EA"/>
<stop offset="0.1002" stop-color="#FFF7E2"/>
<stop offset="0.705" stop-color="#FBF19D"/>
<stop offset="0.9874" stop-color="#F9EE82"/>
</linearGradient>
<clipPath id="clip0_67_144">
<rect width="70.3738" height="74.0138" fill="white" transform="translate(19.1055 87.8752) rotate(-105.377)"/>
</clipPath>
</defs>
</svg>
