<svg width="114" height="116" viewBox="0 0 114 116" fill="none" xmlns="http://www.w3.org/2000/svg">
<g clip-path="url(#clip0_67_104)">
<mask id="mask0_67_104" style="mask-type:luminance" maskUnits="userSpaceOnUse" x="98" y="31" width="8" height="19">
<path d="M105 49.0827C102.722 43.4145 100.489 37.656 98.2112 31.9878L98.2568 32.1238L98.3024 32.2598L98.348 32.3958L98.3935 32.5318L105.273 49.6723L105.227 49.5363C105.136 49.4907 105.182 49.4003 105.182 49.4003L105.136 49.2643C105.045 49.2187 105.091 49.1283 105 49.0827Z" fill="white"/>
</mask>
<g mask="url(#mask0_67_104)">
<path d="M98.4845 32.5774L105.273 49.6723L105.227 49.5363C105.136 49.4907 105.182 49.4003 105.182 49.4003L105.136 49.2643L105.091 49.1283L98.3022 32.0335L98.3477 32.1694L98.3933 32.3054L98.4389 32.4414L98.4845 32.5774Z" fill="#82791D"/>
</g>
<path d="M8.12448 67.4022C8.261 67.5839 8.30658 67.7199 8.44311 67.9016C8.53404 67.9472 8.57962 68.0832 8.67056 68.1289C8.80709 68.3105 8.89802 68.3562 9.03455 68.5378C9.12549 68.5835 9.17107 68.7195 9.35294 68.8108C9.53483 68.9022 9.58041 69.0382 9.76228 69.1295C9.85322 69.1751 10.0351 69.2665 10.0807 69.4025C10.2626 69.4938 10.3081 69.6298 10.49 69.7211C10.581 69.7668 10.7628 69.8581 10.8538 69.9037C11.0357 69.9951 11.1266 70.0407 11.3085 70.132C11.4904 70.2234 11.5813 70.269 11.7632 70.3603C11.945 70.4517 12.1269 70.543 12.2179 70.5887C12.3997 70.68 12.4907 70.7256 12.6726 70.817C12.8544 70.9083 13.0363 70.9996 13.2636 71.0006C13.4454 71.0919 13.5817 71.0472 13.7636 71.1386C13.9455 71.2299 14.1727 71.2309 14.3546 71.3222C14.5365 71.4135 14.7637 71.4145 14.8547 71.4602C15.0365 71.5515 15.2638 71.5525 15.491 71.5535C15.6729 71.6448 15.9001 71.6458 16.1274 71.6468C16.3546 71.6477 16.5365 71.7391 16.7637 71.7401C16.9909 71.741 17.1728 71.8324 17.4001 71.8334C17.6273 71.8343 17.8545 71.8353 18.1274 71.9723C18.3546 71.9733 18.5818 71.9743 18.7637 72.0656C18.9909 72.0666 19.3091 72.1132 19.5364 72.1142C19.7636 72.1152 19.9908 72.1162 20.2181 72.1172C20.4453 72.1182 20.7635 72.1648 20.9907 72.1658C21.218 72.1668 21.4452 72.1678 21.6724 72.1688C21.8997 72.1698 22.2178 72.2164 22.4904 72.1271C22.7177 72.128 22.9449 72.129 23.2631 72.1757C23.6266 72.132 24.0811 72.134 24.3993 72.1806C24.3993 72.1806 24.4902 72.2263 24.5356 72.1359C24.99 72.1379 25.5808 72.0952 26.0353 72.0972C26.1716 72.0525 26.2625 72.0982 26.3988 72.0535C26.8987 71.9651 27.4441 72.0128 27.9439 71.9244L28.0802 71.8797C28.671 71.837 29.1708 71.7487 29.7616 71.706C29.8525 71.7516 29.8979 71.6613 29.9888 71.707C30.5796 71.6643 31.0794 71.5759 31.6702 71.5332L31.8065 71.4885C32.3972 71.4458 33.0334 71.3128 33.5332 71.2244L33.6695 71.1797C34.3056 71.0467 34.8964 71.004 35.5325 70.871C36.1687 70.7379 36.8048 70.6049 37.4409 70.4719L37.5772 70.4272C38.2133 70.2941 38.8495 70.1611 39.4856 70.0281C39.4856 70.0281 39.5765 70.0737 39.6219 69.9834C40.258 69.8504 41.0305 69.6727 41.6666 69.5396C42.3027 69.4066 43.0751 69.2289 43.7566 69.0055L43.8929 68.9608C44.5744 68.7374 45.2105 68.6044 45.983 68.4267L46.1193 68.382C46.8007 68.1587 47.4822 67.9353 48.2547 67.7576L48.391 67.7129C49.0724 67.4895 49.8449 67.3118 50.5264 67.0884C50.5264 67.0884 50.5264 67.0884 50.6627 67.0438C51.3441 66.8204 52.1619 66.5523 52.8434 66.329C53.5249 66.1056 54.3427 65.8376 55.0242 65.6142L55.1605 65.5695C55.8873 65.2558 56.6597 65.0781 57.3866 64.7644C58.1134 64.4507 58.9312 64.1826 59.6581 63.8689L59.7944 63.8242C60.5212 63.5105 61.2481 63.1968 61.9749 62.8831L62.1112 62.8384C62.838 62.5247 63.5195 62.3014 64.1554 61.942C64.2917 61.8973 64.2917 61.8973 64.428 61.8527C65.1549 61.5389 65.7454 61.2699 66.4723 60.9562C66.6086 60.9115 66.6539 60.8212 66.7902 60.7765C67.3808 60.5075 67.9713 60.2385 68.5619 59.9694C68.6982 59.9247 68.7435 59.8344 68.8345 59.8801C69.425 59.611 70.0156 59.342 70.5152 59.0273C70.9694 58.8029 71.2874 58.6233 71.7416 58.3989C72.0596 58.2192 72.3322 58.1299 72.6501 57.9502C73.1044 57.7258 73.4677 57.4558 73.9219 57.2314C74.2399 57.0518 74.5125 56.9624 74.7395 56.7371C75.1937 56.5127 75.6933 56.198 76.1476 55.9737C76.3293 55.8386 76.6018 55.7493 76.7835 55.6143C77.4194 55.2549 78.1007 54.8052 78.7366 54.4458C78.7366 54.4458 78.7819 54.3555 78.8729 54.4012C79.5088 54.0418 80.0538 53.6368 80.6443 53.3677C80.826 53.2327 81.0076 53.0977 81.2802 53.0084C81.6435 52.7383 82.0978 52.514 82.4611 52.244C82.6427 52.109 82.9607 51.9293 83.1423 51.7943C83.5057 51.5242 83.8236 51.3446 84.1869 51.0745C84.4139 50.8492 84.6865 50.7598 84.9135 50.5345C85.2315 50.3548 85.5948 50.0848 85.8218 49.8595C86.2305 49.4991 86.7301 49.1844 87.0934 48.9144C87.5021 48.554 88.0017 48.2393 88.4104 47.879C88.5467 47.8343 88.6374 47.6536 88.7737 47.6089C89.137 47.3389 89.4093 47.0233 89.7273 46.8436C89.7727 46.7532 89.909 46.7086 89.9543 46.6182C90.363 46.2579 90.7263 45.9878 91.044 45.5818C91.0894 45.4915 91.1803 45.5372 91.2257 45.4468C91.589 45.1768 91.9067 44.7708 92.27 44.5008C92.3154 44.4104 92.3154 44.4104 92.4517 44.3657C92.7241 44.0501 93.1327 43.6897 93.4051 43.374L93.4505 43.2837C93.7228 42.968 94.1315 42.6077 94.4039 42.292C94.4039 42.292 94.4039 42.292 94.4492 42.2016C94.7216 41.886 95.0393 41.4799 95.3117 41.1643L95.3571 41.0739C95.6294 40.7582 95.9018 40.4426 96.0832 40.0812C96.3556 39.7655 96.537 39.4042 96.8094 39.0885L96.8548 38.9982C96.9455 38.8175 97.0362 38.6368 97.0816 38.5465C97.1723 38.3658 97.2176 38.2755 97.3084 38.0948L97.3537 38.0045C97.3991 37.9142 97.4898 37.7335 97.5351 37.6431L97.5805 37.5528C97.6712 37.3721 97.7166 37.2818 97.8073 37.1011L97.8527 37.0108C97.898 36.9205 97.9887 36.7398 98.0341 36.6495L98.0794 36.5591C98.1702 36.3784 98.2155 36.2881 98.3062 36.1074L98.3516 36.0171C98.3969 35.9268 98.4877 35.7461 98.4421 35.6101L98.4874 35.5198C98.5328 35.4294 98.5326 35.2031 98.5779 35.1128C98.6233 35.0224 98.6231 34.7961 98.6684 34.7058L98.7138 34.6154C98.7591 34.5251 98.7136 34.3891 98.7589 34.2988C98.7589 34.2988 98.7589 34.2988 98.8043 34.2084C98.8496 34.1181 98.8494 33.8917 98.8948 33.8014L98.9401 33.7111C98.9855 33.6207 98.9399 33.4847 98.9853 33.3944C98.9853 33.3944 99.0306 33.3041 98.9397 33.2584C98.8941 33.1224 98.9395 33.0321 98.8939 32.8961C98.8483 32.7601 98.8937 32.6698 98.8481 32.5338C98.8481 32.5338 98.8934 32.4434 98.8025 32.3977C98.7569 32.2618 98.8023 32.1714 98.7567 32.0354C98.7111 31.8994 98.6655 31.7634 98.6199 31.6274L105.772 48.6786L105.818 48.8146L105.863 48.9506C105.863 48.9506 105.863 48.9506 105.909 49.0866L105.954 49.2226L106 49.3586C106 49.3586 105.954 49.4489 106.045 49.4946C106.045 49.4946 106.045 49.4946 106 49.5849C106.046 49.7209 106 49.8113 106.046 49.9473C105.955 50.1279 105.955 50.1279 106.001 50.2639C106.001 50.2639 106.001 50.2639 105.955 50.3543C105.955 50.3543 105.91 50.4446 106.001 50.4903C106.001 50.4903 105.956 50.5806 106.047 50.6263C106.001 50.7166 106.001 50.7166 106.047 50.8526L106.001 50.9429C105.956 51.0333 106.002 51.1693 105.956 51.2596C105.956 51.2596 105.956 51.2596 105.911 51.3499C105.866 51.4403 105.866 51.4403 105.911 51.5763L105.866 51.6666L105.82 51.7569L105.775 51.8473C105.73 51.9376 105.775 52.0736 105.73 52.1639C105.685 52.2543 105.639 52.3446 105.685 52.4806L105.639 52.571L105.594 52.6613L105.549 52.7516C105.503 52.842 105.458 52.9323 105.458 52.9323L105.413 53.0226C105.367 53.113 105.322 53.2033 105.231 53.384C105.231 53.384 105.231 53.384 105.186 53.4743L105.141 53.5646C105.095 53.655 105.095 53.655 105.05 53.7453C105.004 53.8357 105.004 53.8357 104.959 53.926L104.914 54.0163C104.914 54.0163 104.914 54.0163 104.868 54.1067C104.823 54.197 104.732 54.3777 104.687 54.468L104.642 54.5583C104.596 54.6487 104.551 54.739 104.505 54.8293C104.46 54.9197 104.46 54.9197 104.415 55.01L104.369 55.1004L104.324 55.1907C104.279 55.281 104.188 55.4617 104.143 55.552C104.097 55.6424 104.007 55.823 103.961 55.9134L103.916 56.0037C103.916 56.0037 103.916 56.0037 103.87 56.094C103.825 56.1844 103.78 56.2747 103.78 56.2747C103.689 56.4554 103.644 56.5457 103.462 56.6807C103.28 56.8157 103.326 56.9517 103.144 57.0867C103.099 57.1771 103.008 57.3578 102.872 57.4024C102.781 57.5831 102.645 57.6278 102.554 57.8084C102.509 57.8988 102.463 57.9891 102.327 58.0338L102.282 58.1241C102.236 58.2145 102.236 58.2145 102.191 58.3048C102.1 58.4855 101.919 58.6205 101.873 58.7108C101.783 58.8915 101.601 59.0265 101.51 59.2072C101.51 59.2072 101.51 59.2072 101.465 59.2975C101.374 59.4782 101.238 59.5229 101.147 59.7035C100.966 59.8385 100.875 60.0192 100.693 60.1542C100.648 60.2446 100.648 60.2446 100.512 60.2892L100.466 60.3796C100.421 60.4699 100.285 60.5146 100.239 60.6049C100.057 60.7399 99.9668 60.9206 99.7398 61.1459C99.6944 61.2363 99.5581 61.2809 99.5127 61.3713C99.4674 61.4616 99.4674 61.4616 99.3311 61.5063C99.2857 61.5966 99.1494 61.6413 99.1041 61.7316C98.8771 61.957 98.6954 62.092 98.4684 62.3173C98.423 62.4077 98.2867 62.4523 98.2867 62.4523C98.2414 62.5427 98.1504 62.497 98.1051 62.5874C98.0597 62.6777 97.8781 62.8127 97.8327 62.903C97.6057 63.1284 97.3787 63.3537 97.197 63.4887C97.197 63.4887 97.1517 63.5791 97.0607 63.5334C97.0154 63.6238 96.8791 63.6684 96.8337 63.7588C96.6521 63.8938 96.4704 64.0288 96.2434 64.2541C96.0617 64.3891 96.0164 64.4795 95.8347 64.6145C95.7894 64.7048 95.6531 64.7495 95.6531 64.7495C95.6077 64.8398 95.5168 64.7942 95.4714 64.8845C95.4261 64.9748 95.2898 65.0195 95.2444 65.1098C94.6997 65.7412 94.3363 66.0112 94.1093 66.2366C93.746 66.5066 93.3827 66.7766 93.0194 67.0466C92.8831 67.0913 92.8377 67.1816 92.7014 67.2263C92.3835 67.406 92.0202 67.676 91.7932 67.9014C91.5662 68.1267 91.2936 68.2161 91.0665 68.4414C90.7032 68.7114 90.3853 68.8911 90.022 69.1611C89.8403 69.2961 89.6587 69.4312 89.477 69.5662C89.477 69.5662 89.4316 69.6565 89.3407 69.6108C88.9774 69.8809 88.5231 70.1052 88.1598 70.3752C87.9782 70.5103 87.7965 70.6453 87.5239 70.7346C86.979 71.1396 86.3431 71.499 85.7525 71.768C85.7525 71.768 85.7071 71.8584 85.6162 71.8127C84.9803 72.1721 84.3444 72.5315 83.6631 72.9812C83.4815 73.1162 83.2089 73.2055 83.0272 73.3405C82.573 73.5649 82.2097 73.8349 81.7554 74.0593L81.6191 74.1039L81.4828 74.1486C81.3012 74.2836 81.0286 74.373 80.8469 74.508C80.3927 74.7323 80.0294 75.0024 79.5751 75.2267C79.2571 75.4064 78.9846 75.4958 78.6666 75.6754C78.2124 75.8998 77.8944 76.0795 77.4401 76.3038C77.3039 76.3485 77.2585 76.4389 77.1676 76.3932C76.7133 76.6176 76.2591 76.8419 75.8502 76.9759L75.7139 77.0206C75.5776 77.0653 75.5322 77.1556 75.4413 77.11C75.1233 77.2896 74.8507 77.379 74.5328 77.5587C74.2602 77.648 73.9422 77.8277 73.6696 77.9171C73.5333 77.9617 73.488 78.0521 73.3517 78.0967L73.2154 78.1414C72.7611 78.3658 72.3069 78.5901 71.898 78.7242C71.7617 78.7688 71.58 78.9038 71.4437 78.9485C71.3984 79.0389 71.3074 78.9932 71.2621 79.0835C71.1258 79.1282 71.0804 79.2185 70.9441 79.2632C70.6262 79.4429 70.2173 79.5769 69.9447 79.6663C69.6721 79.7556 69.4904 79.8906 69.2178 79.98L69.0815 80.0247L68.9452 80.0693C68.6273 80.249 68.2184 80.383 67.9458 80.4724C67.6732 80.5617 67.3553 80.7414 67.0827 80.8308L66.9464 80.8754L66.8101 80.9201C66.6738 80.9648 66.4012 81.0541 66.2649 81.0988C65.9923 81.1882 65.6743 81.3678 65.4017 81.4572C65.1291 81.5465 64.8112 81.7262 64.5386 81.8156C64.266 81.9049 63.9934 81.9943 63.6754 82.174C63.4029 82.2633 63.1303 82.3527 62.8123 82.5323C62.676 82.577 62.676 82.577 62.5397 82.6217L62.4034 82.6664C62.2671 82.711 62.1308 82.7557 61.9945 82.8004C61.7219 82.8897 61.4493 82.9791 61.1767 83.0684C60.9041 83.1578 60.6315 83.2471 60.359 83.3365C60.0864 83.4258 59.8138 83.5152 59.6775 83.5599C59.4049 83.6492 59.1323 83.7386 58.8597 83.8279C58.5871 83.9172 58.4508 83.9619 58.1782 84.0513C58.1782 84.0513 58.1782 84.0513 58.0419 84.0959C58.0419 84.0959 58.0419 84.0959 57.9056 84.1406C57.633 84.23 57.3604 84.3193 57.0878 84.4087C56.8152 84.498 56.5426 84.5874 56.27 84.6767C56.1337 84.7214 55.9974 84.7661 55.8611 84.8107L55.7248 84.8554C55.5885 84.9001 55.5885 84.9001 55.4522 84.9448C55.1796 85.0341 54.9071 85.1235 54.6345 85.2128C54.3619 85.3022 54.0893 85.3915 53.862 85.3905C53.7257 85.4352 53.6348 85.3895 53.5894 85.4799L53.4531 85.5245C53.3168 85.5692 53.1805 85.6139 53.0896 85.5682C52.817 85.6576 52.5444 85.7469 52.3172 85.7459C52.0446 85.8353 51.772 85.9246 51.5448 85.9237L51.4085 85.9683L51.2722 86.013C51.1359 86.0577 50.9086 86.0567 50.7723 86.1014C50.4997 86.1907 50.2725 86.1897 49.9999 86.2791C49.7273 86.3684 49.5001 86.3674 49.2275 86.4568C48.9549 86.5461 48.7276 86.5451 48.546 86.6802C48.2734 86.7695 48.0462 86.7685 47.7736 86.8579C47.6373 86.9025 47.41 86.9016 47.2737 86.9462L47.1374 86.9909C46.8648 87.0803 46.6376 87.0793 46.365 87.1686C46.0924 87.258 45.8652 87.257 45.5926 87.3463C45.4563 87.391 45.4563 87.391 45.32 87.4357L45.1837 87.4803C45.0474 87.525 44.9111 87.5697 44.8202 87.524C44.5476 87.6134 44.3203 87.6124 44.0477 87.7017C43.7751 87.7911 43.5479 87.7901 43.3207 87.7891C43.0481 87.8785 42.8208 87.8775 42.5482 87.9668C42.2756 88.0562 41.9575 88.0095 41.6849 88.0989C41.5939 88.0532 41.5486 88.1436 41.4576 88.0979L41.3213 88.1426C41.185 88.1872 41.0487 88.2319 40.8215 88.2309C40.5489 88.3203 40.2307 88.2736 39.9581 88.363C38.9131 88.63 38.7768 88.6747 38.6405 88.7194L38.5042 88.7641C38.4133 88.7184 38.3679 88.8087 38.277 88.7631C37.9134 88.8068 37.6862 88.8058 37.3227 88.8495C37.0954 88.8485 36.9591 88.8932 36.7319 88.8922L36.5956 88.9368L36.4593 88.9815C36.0958 89.0252 35.8685 89.0242 35.505 89.0679C35.2778 89.0669 35.1415 89.1116 34.9142 89.1106L34.7779 89.1553C34.7779 89.1553 34.687 89.1096 34.6416 89.2C34.2781 89.2436 33.9146 89.2873 33.551 89.331C33.3692 89.2397 33.2782 89.194 33.1419 89.2387C33.0056 89.2834 32.9147 89.2377 32.7784 89.2824C32.6421 89.3271 32.5512 89.2814 32.4149 89.3261C32.0513 89.3698 31.7331 89.3231 31.3696 89.3668C31.3696 89.3668 31.3696 89.3668 31.2787 89.3212L31.1877 89.2755C30.9605 89.2745 30.597 89.3182 30.3697 89.3172C30.2334 89.3619 30.1425 89.3162 30.0062 89.3609C29.779 89.3599 29.5517 89.3589 29.2335 89.3123C29.0063 89.3113 28.6881 89.2646 28.4155 89.354C28.1883 89.353 27.9611 89.352 27.7338 89.351C27.5066 89.35 27.1884 89.3034 26.9612 89.3024C26.643 89.2558 26.4611 89.1644 26.2339 89.1634C26.0067 89.1625 25.6885 89.1158 25.4612 89.1148C25.234 89.1138 25.0068 89.1129 24.8249 89.0215C24.7339 88.9759 24.5977 89.0205 24.5067 88.9749C24.4158 88.9292 24.1885 88.9282 24.0976 88.8826C23.8704 88.8816 23.6431 88.8806 23.4159 88.8796C23.1886 88.8786 23.0068 88.7873 22.7795 88.7863C22.5523 88.7853 22.3704 88.694 22.1432 88.693C21.9159 88.692 21.7341 88.6007 21.5522 88.5094C21.3703 88.4181 21.1431 88.4171 21.0521 88.3714C20.8703 88.2801 20.643 88.2791 20.4611 88.1878C20.3702 88.1421 20.2793 88.0965 20.052 88.0955C19.9611 88.0498 19.9611 88.0498 19.9611 88.0498C19.8701 88.0042 19.8701 88.0042 19.7792 87.9585C19.6883 87.9128 19.5064 87.8215 19.4154 87.7758C19.2336 87.6845 19.1426 87.6389 18.9608 87.5475C18.7789 87.4562 18.597 87.3649 18.5061 87.3192C18.3242 87.2279 18.2332 87.1822 18.0514 87.0909C17.8695 86.9996 17.6876 86.9083 17.5967 86.8626C17.5057 86.817 17.3238 86.7256 17.2329 86.68C17.051 86.5887 16.9601 86.543 16.8236 86.3613C16.7326 86.3157 16.5508 86.2244 16.5052 86.0884C16.5052 86.0884 16.5052 86.0884 16.4142 86.0427C16.3233 85.997 16.1868 85.8154 16.0958 85.7697C16.0049 85.7241 15.9593 85.5881 15.7774 85.4967C15.6409 85.3151 15.55 85.2694 15.4135 85.0878C15.3225 85.0421 15.2769 84.9061 15.186 84.8604C15.0495 84.6788 15.0039 84.5428 14.8674 84.3611C14.7764 84.3155 14.7308 84.1795 14.7308 84.1795C14.6397 83.9075 14.5032 83.7258 14.412 83.4538L7.62354 66.3589C7.7147 66.6309 7.85122 66.8126 7.94238 67.0846C7.98797 67.2206 8.0789 67.2662 8.12448 67.4022Z" fill="url(#paint0_linear_67_104)"/>
<path d="M26.1884 89.0274C25.4139 87.1682 24.7304 85.3545 24.0014 83.4049C23.3179 81.5913 22.5888 79.6417 21.9507 77.7377C21.3125 75.8338 20.6744 73.9298 20.0362 72.0259L19.079 69.1699C18.76 68.2179 18.4409 67.266 18.2581 66.2693C18.6226 67.131 19.0326 68.1286 19.3516 69.0806L20.4451 71.8918C21.1286 73.7055 21.8577 75.6551 22.4958 77.559C23.134 79.463 23.7721 81.3669 24.4102 83.2709C25.003 85.2652 25.5502 87.1235 26.1884 89.0274Z" fill="url(#paint1_linear_67_104)"/>
<path d="M37.777 88.6251C37.0025 86.7658 36.3191 84.9522 35.59 83.0026C34.9065 81.189 34.1774 79.2393 33.5393 77.3354C32.9011 75.4314 32.263 73.5275 31.6249 71.6235L30.6677 68.7676C30.3486 67.8156 30.0295 66.8636 29.8468 65.867C30.2112 66.7286 30.6212 67.7263 30.9403 68.6782L32.0338 71.4895C32.7173 73.3031 33.4463 75.2527 34.0845 77.1567C34.7226 79.0607 35.3607 80.9646 35.9989 82.8686C36.637 84.7725 37.2751 86.6765 37.777 88.6251Z" fill="url(#paint2_linear_67_104)"/>
<path d="M48.4097 86.7248C47.6352 84.8655 46.9517 83.0519 46.2227 81.1023C45.5392 79.2887 44.8101 77.3391 44.172 75.4351C43.5338 73.5312 42.8957 71.6272 42.2576 69.7232L41.3003 66.8673C40.9813 65.9153 40.6622 64.9634 40.4794 63.9667C40.8439 64.8283 41.2539 65.826 41.5729 66.778L42.6664 69.5892C43.3499 71.4028 44.079 73.3525 44.7172 75.2564C45.3553 77.1604 45.9934 79.0643 46.6316 80.9683C47.2243 82.9626 47.8625 84.8665 48.4097 86.7248Z" fill="url(#paint3_linear_67_104)"/>
<path d="M58.587 83.9172C57.8126 82.058 57.1291 80.2443 56.4 78.2947C55.7165 76.4811 54.9875 74.5315 54.3493 72.6275C53.7112 70.7236 53.0731 68.8196 52.4349 66.9157L51.4777 64.0597C51.1586 63.1077 50.8396 62.1558 50.6568 61.1591C51.0212 62.0208 51.4312 63.0184 51.7503 63.9704L52.8438 66.7816C53.5273 68.5953 54.2564 70.5449 54.8945 72.4488C55.5327 74.3528 56.1708 76.2567 56.8089 78.1607C57.4471 80.0647 58.0852 81.9686 58.587 83.9172Z" fill="url(#paint4_linear_67_104)"/>
<path d="M69.1727 80.2966C68.3983 78.4374 67.7148 76.6237 66.9857 74.6741C66.3022 72.8605 65.5732 70.9109 64.935 69.0069C64.2969 67.103 63.6587 65.199 63.0206 63.2951L62.0634 60.4391C61.7443 59.4871 61.4253 58.5352 61.2425 57.5385C61.6069 58.4002 62.0169 59.3978 62.336 60.3498L63.4295 63.161C64.113 64.9747 64.8421 66.9243 65.4802 68.8282C66.1183 70.7322 66.7565 72.6361 67.3946 74.5401C68.0328 76.4441 68.6709 78.348 69.1727 80.2966Z" fill="url(#paint5_linear_67_104)"/>
<path d="M78.8485 75.7668C78.0741 73.9075 77.3906 72.0939 76.6615 70.1442C75.978 68.3306 75.2489 66.381 74.6108 64.477C73.9727 62.5731 73.3345 60.6691 72.6964 58.7652L71.7392 55.9092C71.4201 54.9573 71.1011 54.0053 70.9183 53.0086C71.2827 53.8703 71.6927 54.8679 72.0118 55.8199L73.1053 58.6312C73.7888 60.4448 74.5179 62.3944 75.156 64.2983C75.7941 66.2023 76.4323 68.1063 77.0704 70.0102C77.6632 72.0045 78.3013 73.9085 78.8485 75.7668Z" fill="url(#paint6_linear_67_104)"/>
<path d="M88.1143 70.2392C87.3398 68.38 86.6563 66.5663 85.9273 64.6167C85.2438 62.8031 84.5147 60.8535 83.8766 58.9495C83.2384 57.0456 82.6003 55.1416 81.9621 53.2377L81.0049 50.3817C80.6859 49.4297 80.3668 48.4778 80.184 47.4811C80.5485 48.3428 80.9585 49.3404 81.2775 50.2924L82.371 53.1036C83.0545 54.9173 83.7836 56.8669 84.4217 58.7708C85.0599 60.6748 85.698 62.5787 86.3361 64.4827C86.9743 66.3867 87.5671 68.3809 88.1143 70.2392Z" fill="url(#paint7_linear_67_104)"/>
<path d="M97.969 62.8584C97.1946 60.9991 96.5111 59.1855 95.782 57.2358C95.0985 55.4222 94.3694 53.4726 93.7313 51.5686C93.0931 49.6647 92.455 47.7607 91.8169 45.8568L90.8597 43.0008C90.5406 42.0489 90.2215 41.0969 90.0388 40.1002C90.4032 40.9619 90.8132 41.9595 91.1323 42.9115L92.2258 45.7228C92.9093 47.5364 93.6383 49.486 94.2765 51.3899C94.9146 53.2939 95.5527 55.1979 96.1909 57.1018C96.829 59.0058 97.3762 60.8641 97.969 62.8584Z" fill="url(#paint8_linear_67_104)"/>
<path d="M104.596 54.6487C103.822 52.7894 103.138 50.9758 102.409 49.0261C101.726 47.2125 100.997 45.2629 100.358 43.3589C99.7204 41.455 99.0822 39.551 98.4441 37.6471L97.4869 34.7911C97.1678 33.8392 96.8487 32.8872 96.666 31.8905C97.0304 32.7522 97.4404 33.7498 97.7595 34.7018L98.853 37.5131C99.5365 39.3267 100.266 41.2763 100.904 43.1803C101.542 45.0842 102.18 46.9882 102.818 48.8921C103.456 50.7961 104.049 52.7904 104.596 54.6487Z" fill="url(#paint9_linear_67_104)"/>
<path d="M99.53 32.763C98.937 30.5424 97.0266 28.9045 94.1623 27.8057C91.2981 26.7069 87.4346 26.2374 82.9355 26.3537C78.3454 26.4243 73.1196 27.0806 67.3491 28.3683C61.6239 29.5656 55.4903 31.3496 49.1755 33.7213C42.8607 36.093 36.9552 38.7833 31.6407 41.6573C26.3262 44.5313 21.739 47.5442 17.9699 50.5154C14.2007 53.4866 11.2951 56.5521 9.47986 59.2602C7.61928 62.0586 6.9856 64.6813 7.57861 66.9019C8.1716 69.1226 10.0366 70.8508 12.8553 71.8136C15.7196 72.9124 19.583 73.3819 24.0822 73.2656C28.6723 73.195 33.8981 72.5387 39.6686 71.2511C45.3937 70.0537 51.5727 68.1794 57.9785 65.8533C64.2933 63.4817 70.3351 60.7466 75.5132 57.9174C80.8277 55.0434 85.4149 52.0305 89.2295 48.9689C92.9986 45.9977 95.9042 42.9322 97.6285 40.1785C99.3984 37.5607 100.123 34.9837 99.53 32.763Z" fill="url(#paint10_linear_67_104)"/>
<path d="M11.9911 71.0403C14.8554 72.1392 18.7188 72.6086 23.218 72.4923C27.8081 72.4217 33.0339 71.7654 38.8044 70.4778C44.5295 69.2805 50.7085 67.4061 57.1143 65.0801C63.4291 62.7084 69.4708 59.9734 74.649 57.1441C79.9635 54.2701 84.5507 51.2572 88.3653 48.1956C92.1344 45.2244 95.04 42.1589 96.7643 39.4052C98.5339 36.5611 99.2586 33.9841 98.6656 31.7634C98.3921 30.9474 97.9823 30.1761 97.4362 29.4495C98.4823 30.3141 99.2105 31.3584 99.5298 32.5367C100.123 34.7573 99.4891 37.38 97.6286 40.1785C95.8589 43.0226 92.9987 45.9977 89.2295 48.9689C85.4603 51.9401 80.8278 55.0434 75.5133 57.9174C70.1988 60.7913 64.2933 63.4817 57.9785 65.8533C51.6637 68.225 45.3938 70.0537 39.6686 71.2511C33.9435 72.4484 28.6723 73.195 24.0822 73.2656C19.4922 73.3362 15.7196 72.9124 12.8554 71.8136C11.1278 71.1724 9.76343 70.2611 8.80801 69.2159C9.67227 69.9891 10.7182 70.6274 11.9911 71.0403Z" fill="url(#paint11_linear_67_104)"/>
<path d="M91.5797 35.6708C91.0325 33.8125 89.5314 32.4933 87.1219 31.6228C84.7123 30.7522 81.6215 30.3314 77.8041 30.4506C74.032 30.4795 69.6242 31.0941 64.8987 32.1147C60.1732 33.1353 55.0846 34.6523 49.9055 36.5762C44.7265 38.5002 39.8204 40.7875 35.4598 43.1224C31.0992 45.4573 27.3295 47.9759 24.1507 50.4517C21.0628 52.9732 18.7019 55.4073 17.2044 57.7094C15.7069 60.0115 15.0728 62.1815 15.62 64.0398C16.0763 65.8524 17.6229 67.3077 19.9415 68.1325C22.3511 69.0031 25.4419 69.4239 29.214 69.395C32.9861 69.3661 37.3938 68.7515 42.1193 67.7309C46.8448 66.7103 51.9334 65.1934 57.2488 63.2247C62.5642 61.2561 67.4248 59.0591 71.8308 56.6339C76.1915 54.299 80.0064 51.6901 83.1853 49.2143C86.2732 46.6928 88.6341 44.2586 90.1316 41.9566C91.4928 39.6991 92.0359 37.4835 91.5797 35.6708Z" fill="url(#paint12_linear_67_104)"/>
<path d="M64.944 32.0244C69.6695 31.0038 74.0319 30.4795 77.8493 30.3603C81.6214 30.3314 84.7576 30.6619 87.1671 31.5324C89.5767 32.403 91.0777 33.7222 91.6249 35.5805C91.9442 36.7588 91.8093 38.1615 91.3108 39.6078C91.4464 38.8842 91.3548 38.1595 91.2178 37.5252C90.6706 35.6669 89.1696 34.3476 86.76 33.4771C84.3505 32.6066 81.2597 32.1858 77.4422 32.305C73.6701 32.3339 69.2624 32.9485 64.5369 33.9691C59.8114 34.9897 54.7228 36.5066 49.5437 38.4306C44.3646 40.3546 39.4586 42.6418 35.098 44.9767C30.7373 47.3117 26.9677 49.8302 23.7888 52.306C20.7009 54.8276 18.3401 57.2617 16.8426 59.5638C16.3434 60.3311 15.9352 61.1441 15.6633 61.9125C15.8438 60.6458 16.3877 59.1091 17.3406 57.6647C18.8381 55.3627 21.2443 52.8382 24.2869 50.407C27.3748 47.8855 31.2354 45.4126 35.596 43.0777C39.9566 40.7428 44.8627 38.4555 50.0417 36.5316C55.1299 34.562 60.2185 33.045 64.944 32.0244Z" fill="url(#paint13_linear_67_104)"/>
<path d="M69.2903 61.24C69.2903 61.24 65.974 62.6289 63.4302 63.84C63.4302 63.84 65.2917 61.9469 61.928 61.3891L67.8789 58.6085C67.9698 58.6541 62.2469 62.1148 69.2903 61.24Z" fill="url(#paint14_linear_67_104)"/>
<path opacity="0.53" d="M62.7912 61.0307C62.7912 61.0307 39.8052 71.4327 23.8964 69.1003L44.8628 38.4555C44.8628 38.4555 72.6648 26.626 87.3491 31.6238L62.7912 61.0307Z" fill="url(#paint15_linear_67_104)"/>
<path opacity="0.53" d="M65.9742 62.8552L63.4726 60.8074C63.4726 60.8074 57.749 63.589 43.7551 67.4212C43.7551 67.4212 27.489 71.4698 18.4864 67.402L15.9013 72.7774C15.9013 72.7774 23.3565 74.711 35.4885 72.3193C35.4885 72.3193 44.4404 71.0454 56.7067 66.5721C56.6157 66.5264 65.7019 63.1709 65.9742 62.8552Z" fill="url(#paint16_linear_67_104)"/>
<path opacity="0.53" d="M97.209 29.4485L90.7143 33.7659C90.578 33.8106 90.4417 33.8552 90.3052 33.6736C89.8047 33.0829 87.8485 31.0827 81.9853 30.5141C80.349 30.3712 78.8037 30.2739 77.2586 30.403C73.9866 30.5699 64.0805 31.9301 60.0369 33.18C60.0369 33.18 48.678 36.073 41.4102 39.8891L39.2265 37.6615C39.2265 37.6615 55.3981 29.9459 72.6652 27.0786C73.256 27.0359 73.8012 26.8572 74.3919 26.8145C77.9366 26.5583 90.6145 24.6669 97.209 29.4485Z" fill="url(#paint17_linear_67_104)"/>
<path d="M99.53 32.763C99.53 32.763 98.9354 28.9581 93.3441 27.6211C93.3441 27.6211 93.8937 31.969 87.7583 31.9424C87.7583 31.9424 90.8043 32.9062 91.6712 36.3955C91.7165 36.3052 92.1652 30.4225 99.53 32.763Z" fill="url(#paint18_linear_67_104)"/>
<path d="M69.2901 61.0137L69.6092 61.9657L72.6533 61.1188L72.2433 60.1212L69.2901 61.0137Z" fill="url(#paint19_linear_67_104)"/>
<path d="M73.6063 59.6745L73.9254 60.6264L76.8781 59.2813L76.4681 58.2836L73.6063 59.6745Z" fill="url(#paint20_linear_67_104)"/>
<path d="M73.1985 60.9401L73.6085 61.9378L73.9254 60.6264L73.6063 59.6745L73.1985 60.9401Z" fill="url(#paint21_linear_67_104)"/>
<path d="M72.2433 60.1212L72.6533 61.1188L73.6085 61.9378L73.1985 60.9401L72.2433 60.1212Z" fill="url(#paint22_linear_67_104)"/>
<path d="M76.468 58.2836L73.4239 59.1305L72.5143 58.4475L72.1065 59.7132L69.2901 61.0137L72.2433 60.1212L73.1985 60.9401L73.6062 59.6745L76.468 58.2836Z" fill="url(#paint23_linear_67_104)"/>
</g>
<defs>
<linearGradient id="paint0_linear_67_104" x1="125.484" y1="49.7942" x2="17.9792" y2="70.2251" gradientUnits="userSpaceOnUse">
<stop stop-color="#F49B1A"/>
<stop offset="0.4648" stop-color="#FFD201"/>
<stop offset="0.9774" stop-color="#F39519"/>
</linearGradient>
<linearGradient id="paint1_linear_67_104" x1="26.1415" y1="89.0385" x2="18.4029" y2="66.3231" gradientUnits="userSpaceOnUse">
<stop stop-color="#CD8D09"/>
<stop offset="1" stop-color="#9C4F16"/>
</linearGradient>
<linearGradient id="paint2_linear_67_104" x1="37.8063" y1="88.6028" x2="30.0677" y2="65.8873" gradientUnits="userSpaceOnUse">
<stop stop-color="#CD8D09"/>
<stop offset="1" stop-color="#9C4F16"/>
</linearGradient>
<linearGradient id="paint3_linear_67_104" x1="48.3924" y1="86.7656" x2="40.6538" y2="64.0503" gradientUnits="userSpaceOnUse">
<stop stop-color="#CD8D09"/>
<stop offset="1" stop-color="#9C4F16"/>
</linearGradient>
<linearGradient id="paint4_linear_67_104" x1="58.6118" y1="83.8744" x2="50.8732" y2="61.1591" gradientUnits="userSpaceOnUse">
<stop stop-color="#CD8D09"/>
<stop offset="1" stop-color="#9C4F16"/>
</linearGradient>
<linearGradient id="paint5_linear_67_104" x1="69.1761" y1="80.276" x2="61.4375" y2="57.5607" gradientUnits="userSpaceOnUse">
<stop stop-color="#CD8D09"/>
<stop offset="1" stop-color="#9C4F16"/>
</linearGradient>
<linearGradient id="paint6_linear_67_104" x1="78.845" y1="75.8035" x2="71.1065" y2="53.0882" gradientUnits="userSpaceOnUse">
<stop stop-color="#CD8D09"/>
<stop offset="1" stop-color="#9C4F16"/>
</linearGradient>
<linearGradient id="paint7_linear_67_104" x1="88.147" y1="70.2769" x2="80.4084" y2="47.5616" gradientUnits="userSpaceOnUse">
<stop stop-color="#CD8D09"/>
<stop offset="1" stop-color="#9C4F16"/>
</linearGradient>
<linearGradient id="paint8_linear_67_104" x1="97.9551" y1="62.8093" x2="90.2165" y2="40.0938" gradientUnits="userSpaceOnUse">
<stop stop-color="#CD8D09"/>
<stop offset="1" stop-color="#9C4F16"/>
</linearGradient>
<linearGradient id="paint9_linear_67_104" x1="104.572" y1="54.6598" x2="96.8333" y2="31.9445" gradientUnits="userSpaceOnUse">
<stop stop-color="#CD8D09"/>
<stop offset="1" stop-color="#9C4F16"/>
</linearGradient>
<linearGradient id="paint10_linear_67_104" x1="113.52" y1="63.2418" x2="0.44759" y2="38.4177" gradientUnits="userSpaceOnUse">
<stop offset="0.0376884" stop-color="#F5E71E"/>
<stop offset="0.9774" stop-color="#FBBF09"/>
</linearGradient>
<linearGradient id="paint11_linear_67_104" x1="112.836" y1="63.7104" x2="3.05799" y2="39.6099" gradientUnits="userSpaceOnUse">
<stop offset="0.0376884" stop-color="#FFF8EA"/>
<stop offset="1" stop-color="#F2E500"/>
</linearGradient>
<linearGradient id="paint12_linear_67_104" x1="94.2845" y1="59.059" x2="17.3674" y2="41.9739" gradientUnits="userSpaceOnUse">
<stop stop-color="#F49B1A"/>
<stop offset="0.4648" stop-color="#FFD201"/>
<stop offset="0.9774" stop-color="#F39519"/>
</linearGradient>
<linearGradient id="paint13_linear_67_104" x1="99.7262" y1="66.8205" x2="48.6815" y2="45.764" gradientUnits="userSpaceOnUse">
<stop stop-color="#F8AE19"/>
<stop offset="0.9774" stop-color="#F39519"/>
</linearGradient>
<linearGradient id="paint14_linear_67_104" x1="70.186" y1="61.3805" x2="54.4798" y2="61.9381" gradientUnits="userSpaceOnUse">
<stop offset="0.0376884" stop-color="#FFF8EA"/>
<stop offset="1" stop-color="#F2E500"/>
</linearGradient>
<linearGradient id="paint15_linear_67_104" x1="96.9217" y1="107.161" x2="14.6886" y2="-7.2658" gradientUnits="userSpaceOnUse">
<stop offset="0.0376884" stop-color="#FFF8EA"/>
<stop offset="1" stop-color="#F2E500"/>
</linearGradient>
<linearGradient id="paint16_linear_67_104" x1="58.1403" y1="76.0668" x2="19.2207" y2="56.5324" gradientUnits="userSpaceOnUse">
<stop offset="0.0376884" stop-color="#FFF8EA"/>
<stop offset="1" stop-color="#F2E500"/>
</linearGradient>
<linearGradient id="paint17_linear_67_104" x1="99.7" y1="29.2206" x2="44.3929" y2="35.1912" gradientUnits="userSpaceOnUse">
<stop offset="0.0376884" stop-color="#FFF8EA"/>
<stop offset="1" stop-color="#F2E500"/>
</linearGradient>
<linearGradient id="paint18_linear_67_104" x1="101.368" y1="32.3826" x2="77.4115" y2="31.2147" gradientUnits="userSpaceOnUse">
<stop offset="0.0376884" stop-color="#FFF8EA"/>
<stop offset="1" stop-color="#F2E500"/>
</linearGradient>
<linearGradient id="paint19_linear_67_104" x1="73.8595" y1="63.665" x2="71.4468" y2="61.4919" gradientUnits="userSpaceOnUse">
<stop offset="0.0376884" stop-color="#FFF8EA"/>
<stop offset="0.1002" stop-color="#FFF7E2"/>
<stop offset="0.705" stop-color="#FBF19D"/>
<stop offset="0.9874" stop-color="#F9EE82"/>
</linearGradient>
<linearGradient id="paint20_linear_67_104" x1="77.1942" y1="60.6137" x2="74.7104" y2="59.1766" gradientUnits="userSpaceOnUse">
<stop offset="0.0376884" stop-color="#FFF8EA"/>
<stop offset="0.1002" stop-color="#FFF7E2"/>
<stop offset="0.705" stop-color="#FBF19D"/>
<stop offset="0.9874" stop-color="#F9EE82"/>
</linearGradient>
<linearGradient id="paint21_linear_67_104" x1="75.174" y1="62.2057" x2="72.7615" y2="60.0325" gradientUnits="userSpaceOnUse">
<stop offset="0.0376884" stop-color="#FFF8EA"/>
<stop offset="0.1002" stop-color="#FFF7E2"/>
<stop offset="0.705" stop-color="#FBF19D"/>
<stop offset="0.9874" stop-color="#F9EE82"/>
</linearGradient>
<linearGradient id="paint22_linear_67_104" x1="74.7593" y1="62.6659" x2="72.347" y2="60.4931" gradientUnits="userSpaceOnUse">
<stop offset="0.0376884" stop-color="#FFF8EA"/>
<stop offset="0.1002" stop-color="#FFF7E2"/>
<stop offset="0.705" stop-color="#FBF19D"/>
<stop offset="0.9874" stop-color="#F9EE82"/>
</linearGradient>
<linearGradient id="paint23_linear_67_104" x1="76.7234" y1="60.2086" x2="61.9836" y2="58.1763" gradientUnits="userSpaceOnUse">
<stop offset="0.0376884" stop-color="#FFF8EA"/>
<stop offset="0.1002" stop-color="#FFF7E2"/>
<stop offset="0.705" stop-color="#FBF19D"/>
<stop offset="0.9874" stop-color="#F9EE82"/>
</linearGradient>
<clipPath id="clip0_67_104">
<rect width="83.1371" height="87.4373" fill="white" transform="translate(74.2974 115.446) rotate(-153.338)"/>
</clipPath>
</defs>
</svg>
