<svg width="17" height="20" viewBox="0 0 17 20" fill="none" xmlns="http://www.w3.org/2000/svg">
<path d="M8.84326 10C9.39326 10 9.86426 9.804 10.2563 9.412C10.6476 9.02067 10.8433 8.55 10.8433 8C10.8433 7.45 10.6476 6.979 10.2563 6.587C9.86426 6.19567 9.39326 6 8.84326 6C8.29326 6 7.8226 6.19567 7.43126 6.587C7.03926 6.979 6.84326 7.45 6.84326 8C6.84326 8.55 7.03926 9.02067 7.43126 9.412C7.8226 9.804 8.29326 10 8.84326 10ZM8.84326 19.625C8.70993 19.625 8.5766 19.6 8.44326 19.55C8.30993 19.5 8.19326 19.4333 8.09326 19.35C5.65993 17.2 3.84326 15.2043 2.64326 13.363C1.44326 11.521 0.843262 9.8 0.843262 8.2C0.843262 5.7 1.6476 3.70833 3.25626 2.225C4.86426 0.741667 6.72659 0 8.84326 0C10.9599 0 12.8223 0.741667 14.4303 2.225C16.0389 3.70833 16.8433 5.7 16.8433 8.2C16.8433 9.8 16.2433 11.521 15.0433 13.363C13.8433 15.2043 12.0266 17.2 9.59326 19.35C9.49326 19.4333 9.37659 19.5 9.24326 19.55C9.10993 19.6 8.97659 19.625 8.84326 19.625Z" fill="#03B047"/>
</svg>
