<svg width="77" height="50" viewBox="0 0 77 50" fill="none" xmlns="http://www.w3.org/2000/svg">
<path d="M19.9138 23.6802C6.43724 22.7077 1.0227 14.7074 0 10.8289C8.28969 22.1751 20.3962 22.233 25.4132 20.8436C18.7598 21.4205 13.2961 19.6952 10.4079 18.2868C9.83765 18.0442 9.35329 17.7771 8.97278 17.4861C9.33593 17.7249 9.81823 17.9992 10.4079 18.2868C12.7872 19.2988 16.6615 19.8819 20.7242 19.9753C25.7606 20.0911 33.1124 14.4759 34.6175 13.7233C36.1227 12.9707 43.243 11.9287 46.1374 17.4861C50.5949 27.0377 40.2907 29.2954 37.3383 30.3374C34.386 31.3794 32.2441 33.695 32.3599 33.8107C32.823 33.3013 34.6368 32.3249 35.4859 31.9004C34.386 32.5951 32.0126 35.3737 33.0546 37.7472C34.0965 40.1206 34.4439 45.2149 34.386 46.2569C34.3281 47.2989 32.302 49.7881 32.0126 49.1513C31.7231 48.5145 32.6493 46.72 32.823 45.9095C32.9619 45.2612 32.3406 44.7132 32.0126 44.5202C32.109 44.8096 32.1978 45.6548 31.781 46.72C31.26 48.0514 28.3656 50.4249 27.9024 49.6723C27.4393 48.9197 29.2339 47.1831 29.5812 46.72C29.9286 46.2569 29.8707 43.6519 29.8707 42.6677C29.8707 41.6836 29.0023 37.5156 28.7708 36.3579C28.5392 35.2001 27.4972 32.5372 29.5812 31.611C33.865 29.6427 38.6119 25.9957 38.554 24.4906C38.4961 22.9855 36.5858 22.233 33.1124 22.1751C29.6391 22.1172 25.5869 24.0854 19.9138 23.6802Z" fill="#03B047"/>
<path d="M36.5278 12.1605C47.272 11.3732 48.7617 20.0141 48.1635 24.4329C49.2634 23.7962 53.2577 23.2173 55.9206 22.4068C58.5835 21.5964 61.4201 18.7598 61.5358 18.5861C61.6516 18.4125 61.9411 19.0493 61.7095 19.165C61.0727 19.3966 61.1306 20.3228 61.3043 20.9017C61.4779 21.4806 61.5937 23.5646 61.4201 24.1435C61.2464 24.7224 59.1624 25.6486 58.8729 26.0538C58.5835 26.459 59.2782 26.8064 60.6675 26.5748C62.0568 26.3433 63.5619 24.4908 63.5619 23.7962C63.5619 20.9017 63.9093 17.4284 64.1987 16.4443C64.4882 15.4601 66.9195 14.6497 67.2668 13.434C67.6142 11.7553 68.1931 11.0027 69.4087 10.4817C70.6244 9.9607 72.3611 11.0606 73.6925 11.4079C75.0239 11.7553 76.3554 9.90282 76.1238 9.55548C75.8923 9.20815 74.9082 8.74504 74.1556 8.05037C73.4031 7.35571 72.6505 5.56115 71.7243 5.32959C70.3928 4.92438 69.4666 4.2297 69.1772 3.30348C68.4362 0.524811 66.5143 -0.0540776 65.6459 0.00381125C65.5533 2.0415 65.9933 3.12981 66.2248 3.41925C65.4375 2.49303 64.4303 2.30007 64.0251 2.31937C64.2566 4.58861 65.974 5.54185 66.8037 5.73481C65.9933 7.18203 63.9093 8.86081 59.2203 9.26603C55.4691 9.59021 53.4121 8.78362 52.8525 8.33981C55.1217 8.66399 57.5415 8.62925 58.4677 8.57137C57.0784 8.51348 52.9683 6.8347 48.1635 6.8347C44.3197 6.8347 38.8048 10.3852 36.5278 12.1605Z" fill="#111B25"/>
</svg>
