<svg width="21" height="16" viewBox="0 0 21 16" fill="none" xmlns="http://www.w3.org/2000/svg">
<path d="M18.8433 0H2.84326C1.74326 0 0.843262 0.9 0.843262 2V14C0.843262 15.1 1.74326 16 2.84326 16H18.8433C19.9433 16 20.8433 15.1 20.8433 14V2C20.8433 0.9 19.9433 0 18.8433 0ZM18.4433 4.25L11.9033 8.34C11.2533 8.75 10.4333 8.75 9.78326 8.34L3.24326 4.25C3.14299 4.19371 3.05518 4.11766 2.98515 4.02645C2.91512 3.93525 2.86432 3.83078 2.83584 3.71937C2.80735 3.60796 2.80176 3.49194 2.81942 3.37831C2.83707 3.26468 2.8776 3.15581 2.93854 3.0583C2.99949 2.96079 3.07959 2.87666 3.17399 2.811C3.26839 2.74533 3.37513 2.69951 3.48776 2.6763C3.60038 2.65309 3.71654 2.65297 3.82922 2.67595C3.94189 2.69893 4.04873 2.74453 4.14326 2.81L10.8433 7L17.5433 2.81C17.6378 2.74453 17.7446 2.69893 17.8573 2.67595C17.97 2.65297 18.0861 2.65309 18.1988 2.6763C18.3114 2.69951 18.4181 2.74533 18.5125 2.811C18.6069 2.87666 18.687 2.96079 18.748 3.0583C18.8089 3.15581 18.8495 3.26468 18.8671 3.37831C18.8848 3.49194 18.8792 3.60796 18.8507 3.71937C18.8222 3.83078 18.7714 3.93525 18.7014 4.02645C18.6313 4.11766 18.5435 4.19371 18.4433 4.25Z" fill="#03B047"/>
</svg>
