<svg width="21" height="20" viewBox="0 0 21 20" fill="none" xmlns="http://www.w3.org/2000/svg">
<path d="M13.8508 13.86L15.5308 12.18C15.757 11.9566 16.0433 11.8036 16.3548 11.7397C16.6664 11.6758 16.9898 11.7037 17.2858 11.82L19.3333 12.6375C19.6324 12.7589 19.8888 12.9662 20.0703 13.2331C20.2519 13.5 20.3503 13.8147 20.3533 14.1375V17.8875C20.3515 18.1071 20.3054 18.3241 20.2176 18.5254C20.1298 18.7266 20.0021 18.9081 19.8424 19.0587C19.6826 19.2094 19.494 19.3261 19.2879 19.402C19.0819 19.4778 18.8626 19.5112 18.6432 19.5C4.29575 18.6075 1.40075 6.45753 0.85325 1.80753C0.827834 1.57918 0.851056 1.34804 0.921386 1.12931C0.991716 0.910584 1.10756 0.709225 1.2613 0.538483C1.41504 0.36774 1.60319 0.231484 1.81337 0.138679C2.02355 0.0458728 2.251 -0.00137937 2.48075 3.06518e-05H6.10325C6.42651 0.000987492 6.74209 0.0986312 7.0094 0.280403C7.27671 0.462174 7.48353 0.719761 7.60325 1.02003L8.42075 3.06753C8.54094 3.36233 8.5716 3.68601 8.50891 3.99814C8.44622 4.31027 8.29295 4.597 8.06825 4.82253L6.38825 6.50253C6.38825 6.50253 7.35575 13.05 13.8508 13.86Z" fill="#03B047"/>
</svg>
