<svg width="30" height="30" viewBox="0 0 30 30" fill="none" xmlns="http://www.w3.org/2000/svg">
<circle cx="15" cy="15" r="15" fill="#37C06D"/>
<path d="M21.5164 8.29099C21.4459 8.10288 21.3753 8.05585 21.2813 8.03233C21.0226 7.93827 20.6229 8.07936 20.6229 8.07936C20.6229 8.07936 5.78515 13.4172 4.93863 14.005C4.75051 14.1226 4.70348 14.2167 4.65645 14.2872C4.51537 14.7105 4.96214 14.8986 4.96214 14.8986L8.79502 16.1449C8.79502 16.1449 8.93611 16.1684 8.98314 16.1449C9.85318 15.604 17.7306 10.6189 18.1773 10.4543C18.2479 10.4308 18.2949 10.4543 18.2949 10.5014C18.1068 11.1363 11.2641 17.2265 11.2641 17.2265C11.2641 17.2265 11.2405 17.2501 11.217 17.2971L10.8643 21.0829C10.8643 21.0829 10.7232 22.2351 11.8754 21.0829C12.6984 20.2599 13.4979 19.578 13.8742 19.2488C15.191 20.1659 16.6019 21.1535 17.2132 21.6943C17.5189 21.953 17.7776 22 17.9892 22C18.5771 21.9765 18.7417 21.3416 18.7417 21.3416C18.7417 21.3416 21.4459 10.4543 21.5399 8.99643C21.5399 8.85534 21.5634 8.76128 21.5634 8.66723C21.5399 8.50262 21.5399 8.36154 21.5164 8.29099Z" fill="white"/>
</svg>
