<svg width="21" height="20" viewBox="0 0 21 20" fill="none" xmlns="http://www.w3.org/2000/svg">
<path d="M10.8333 0C5.31326 0 0.843262 4.48 0.843262 10C0.843262 15.52 5.31326 20 10.8333 20C16.3633 20 20.8433 15.52 20.8433 10C20.8433 4.48 16.3633 0 10.8333 0ZM14.8433 14C14.7507 14.0927 14.6409 14.1663 14.5199 14.2164C14.3989 14.2666 14.2692 14.2924 14.1383 14.2924C14.0073 14.2924 13.8776 14.2666 13.7566 14.2164C13.6357 14.1663 13.5258 14.0927 13.4333 14L10.1433 10.71C10.0488 10.6174 9.9736 10.5069 9.92211 10.3851C9.87061 10.2632 9.84381 10.1323 9.84326 10V6C9.84326 5.45 10.2933 5 10.8433 5C11.3933 5 11.8433 5.45 11.8433 6V9.59L14.8433 12.59C15.2333 12.98 15.2333 13.61 14.8433 14Z" fill="#03B047"/>
</svg>
